<svg version="1.1" xmlns="http://www.w3.org/2000/svg" xmlns:xlink="http://www.w3.org/1999/xlink" width="124.36845" height="77.31094" viewBox="0,0,124.36845,77.31094"><g transform="translate(-184.06905,-151.28906)"><g data-paper-data="{&quot;isPaintingLayer&quot;:true}" fill-rule="nonzero" stroke-miterlimit="10" stroke-dasharray="" stroke-dashoffset="0" style="mix-blend-mode: normal"><path d="M213.6,209.8c0.6,0.8 1.9,2.1 -1.5,4.6c-3.4,2.4 -10.2,0.7 -11,0.4c-2.9,-0.9 -6.6,-2.2 -10.1,-5c-10.2,-8 -5.8,-20.5 -1.4,-21.2c4.4,-0.7 3.3,7.7 6.8,14.2c1.6,2.9 4,4.7 6.2,6c3,1.8 10.5,0.3 11,1z" fill="#faa51f" stroke="none" stroke-width="1" stroke-linecap="butt" stroke-linejoin="miter"/><path d="M193.5,193.5c0.7,2.8 2.3,8 2.3,8c0,0 -3.8,-2.1 -6.4,-1.1c-2.6,0.9 -1.9,5.5 -3,4c-0.7,-1.7 -1.8,-4.3 -1.6,-8c0.2,-3.7 3,-7.9 5.1,-7.8c2.2,0.2 2.8,2.1 3.6,4.9z" fill="#ffffff" stroke="none" stroke-width="1" stroke-linecap="butt" stroke-linejoin="miter"/><path d="M213.6,209.8c0.6,0.8 1.9,2.1 -1.5,4.6c-3.4,2.4 -10.2,0.7 -11,0.4c-2.9,-0.9 -6.6,-2.2 -10.1,-5c-10.2,-8 -5.8,-20.5 -1.4,-21.2c4.4,-0.7 3.3,7.7 6.8,14.2c1.6,2.9 4,4.7 6.2,6c3,1.8 10.5,0.3 11,1z" fill="none" stroke="#000000" stroke-width="1.4" stroke-linecap="round" stroke-linejoin="round"/><path d="M207.6,202.7c6.5,-5 13.3,-5.1 25.5,-5.1c14.4,0 26.8,7.1 32.6,17.3c3.2,5.7 -1.1,11.6 -7.7,11.6l-42.8,1.2c-11,0 -16.5,-18 -7.6,-25z" fill="#faa51f" stroke="none" stroke-width="1" stroke-linecap="butt" stroke-linejoin="miter"/><path d="M211.3,227.7c0,0 1.4,-8.5 13.4,-8.2c12,0.3 13.6,8.2 13.6,8.2z" fill="#ffffff" stroke="none" stroke-width="1" stroke-linecap="butt" stroke-linejoin="miter"/><path d="M237.3,222.8l-5.1,0.3v-0.1c0,-1.5 0.7,-2.8 1.9,-3.7v0z" fill="#faa51f" stroke="none" stroke-width="1" stroke-linecap="butt" stroke-linejoin="miter"/><path d="M273.7,219.6c2.5,0 4.1,0.4 4.3,3.4c0.2,3 -0.4,4.9 -3.3,4.9h-6.8c-9.6,0.2 -13.8,-3.2 -13.4,-7" fill="#faa51f" stroke="#000000" stroke-width="1.4" stroke-linecap="round" stroke-linejoin="round"/><path d="M214.4,206.6" fill="#faa51f" stroke="#8e5322" stroke-width="1.4" stroke-linecap="round" stroke-linejoin="round"/><path d="M207.6,202.7c6.5,-5 13.3,-5.1 25.5,-5.1c8.8,0 16.9,2.7 23.2,7.1c10,7.1 4.7,23 -7.6,23h-33.5c-11,0 -16.5,-18 -7.6,-25z" fill="none" stroke="#000000" stroke-width="1.4" stroke-linecap="round" stroke-linejoin="round"/><path d="M214.4,220.4l-0.3,4.7h-4.4l4.7,-4.7" fill="#faa51f" stroke="none" stroke-width="1" stroke-linecap="butt" stroke-linejoin="miter"/><path d="M252.6,219.6c3.1,0 5,0.4 5.3,3.4c0.3,3 -0.4,4.9 -4.1,4.9h-4.7c-11.7,0.2 -16.9,-3.2 -16.5,-7" fill="#faa51f" stroke="#000000" stroke-width="1.4" stroke-linecap="round" stroke-linejoin="round"/><path d="M213.9,223.5c0.4,3.7 -10.1,4.1 -14.4,4.1h-5.4c-2.8,0 -3.4,-1.9 -3.1,-4.9c0.2,-3 1.7,-3.4 4.1,-3.4c0,0 8.1,0 8.3,-5.2" fill="#faa51f" stroke="#000000" stroke-width="1.4" stroke-linecap="round" stroke-linejoin="round"/><path d="M251.5,221.6c0,0 -2.8,1.8 -4.4,1.2" fill="#faa51f" stroke="#8e5322" stroke-width="1.4" stroke-linecap="round" stroke-linejoin="round"/><path d="M259.9,174.6l8,-6.1l1.5,11.4c0,0 5.7,5.2 7.2,8.6c2.5,5.7 2.1,10 2.1,10c0,0 6.5,2.8 7.1,8.4c0.5,5.7 -5,15.6 -23.4,17.1c-18.4,1.5 -32.4,-5 -38,-16.8c-5.5,-11.7 6.7,-23.6 6,-22.9l-0.1,-18.4l11.6,9.6c0,0 4.5,-1.1 9.1,-0.8c1.7,0.1 4.7,0.6 6.2,0.9z" fill="#faa51f" stroke="none" stroke-width="1" stroke-linecap="butt" stroke-linejoin="miter"/><path d="M278,198.7c0,0 6.4,2.4 7,8c0.9,5.7 -5.2,15.4 -22.6,16.6c-4,0.4 -7.5,0.6 -13,0c-8.4,-0.9 -17,-7.2 -15.1,-18.1c1.1,-6.3 9.1,-4.9 9.1,-4.9l7.2,-1c0,0 6.9,2.4 11.2,2c4.3,-0.4 4.7,-3.7 4.7,-3.7l9.1,-1.6l2.2,2.3z" fill="#ffffff" stroke="none" stroke-width="1" stroke-linecap="butt" stroke-linejoin="miter"/><path d="M293.6,201.5c0,0 -1.9,1.4 -4.6,2c-2.3,0.5 -6.8,0.7 -6.8,0.7" fill="none" stroke="#000000" stroke-width="1.4" stroke-linecap="round" stroke-linejoin="round"/><path d="M291.7,212.5c0,0 -1.9,0 -4.5,-0.6c-2.7,-0.5 -5.2,-1.9 -5.2,-1.9" fill="none" stroke="#000000" stroke-width="1.4" stroke-linecap="round" stroke-linejoin="round"/><path d="M256.9,175.6c2.7,1 3.6,1.8 3.6,1.8" fill="none" stroke="#000000" stroke-width="1.4" stroke-linecap="round" stroke-linejoin="round"/><path d="M244.6,177.9l-4.8,-4.1" fill="none" stroke="#000000" stroke-width="1.4" stroke-linecap="round" stroke-linejoin="round"/><path d="M224.3,202.7c0,0 -3.5,0.1 -5.3,0c-1.8,-0.1 -5.7,-0.9 -5.7,-0.9" fill="none" stroke="#000000" stroke-width="1.4" stroke-linecap="round" stroke-linejoin="round"/><path d="M213.6,192.1c0,0 2.1,0.7 5.9,2.9c3.4,2 5.5,4 5.5,4" fill="none" stroke="#000000" stroke-width="1.4" stroke-linecap="round" stroke-linejoin="round"/><g fill="#faa51f" stroke="#000000" stroke-width="1.4" stroke-linecap="round" stroke-linejoin="round"><path d="M273.4,188.4c2.3,4.6 1.9,9.6 -1,11c-2.9,1.5 -7.1,-1.1 -9.4,-5.8c-2.3,-4.6 -1.9,-9.6 1,-11c2.9,-1.4 7.1,1.2 9.4,5.8z"/><path d="M261.9,190.9c0,0 6,-3.6 12.7,1.1"/></g><g fill="#faa51f" stroke="#000000" stroke-width="1.4" stroke-linecap="round" stroke-linejoin="round"><path d="M251,189c2.3,4.6 1.4,9.8 -2,11.5c-3.4,1.7 -8.1,-0.6 -10.4,-5.3c-2.3,-4.6 -1.4,-9.8 2,-11.5c3.4,-1.7 8.1,0.6 10.4,5.3z"/><path d="M238.7,195.2c0,0 4.2,-5 12.8,-5.3"/></g><path d="M260.8,200c1.7,0 4.2,-1 4.3,0.9c-0.1,0.8 -2,3.9 -3.9,3.8c-2,-0.1 -5.2,-3 -4.9,-4.5c0.2,-1.5 3,-0.2 4.5,-0.2z" fill="#000000" stroke="#000000" stroke-width="1.4" stroke-linecap="round" stroke-linejoin="round"/><path d="M253.8175,216.375c0.29,-0.4696 0.7434,-0.7773 1.2416,-0.895c0.4982,-0.1178 1.0413,-0.0456 1.511,0.2445c0.4696,0.29 0.7773,0.7434 0.8951,1.2416c0.1177,0.4982 0.0455,1.0413 -0.2445,1.5109c-0.2901,0.4697 -0.7434,0.7774 -1.2417,0.8951c-0.4982,0.1178 -1.0413,0.0456 -1.5109,-0.2444c-0.4697,-0.2901 -0.7774,-0.7435 -0.8951,-1.2417c-0.1178,-0.4982 -0.0456,-1.0413 0.2445,-1.511z" fill="#ffffff" stroke="#000000" stroke-width="1.40001" stroke-linecap="round" stroke-linejoin="round"/><path d="M259.9,174.6l8,-6.1l1.5,11.4c0,0 5.7,5.2 7.2,8.6c2.5,5.7 2.1,10 2.1,10c0,0 6.5,2.8 7.1,8.4c0.5,5.7 -5,15.6 -23.4,17.1c-18.4,1.5 -32.4,-5 -38,-16.8c-5.5,-11.7 6.7,-23.6 6,-22.9l-0.1,-18.4l11.6,9.6c0,0 4.5,-1.1 9.1,-0.8c1.7,0.1 4.7,0.6 6.2,0.9z" fill="none" stroke="#000000" stroke-width="1.4" stroke-linecap="round" stroke-linejoin="round"/><path d="M308.1,164.4c-0.2,0.3 -0.6,0.4 -0.9,0.4l-9.3,0.6h-0.1c-0.7,0 -1.2,-0.5 -1.3,-1.2c0,-0.3 0.1,-0.7 0.3,-0.9l5.9,-8.5l-4.4,1c-0.1,0 -0.2,0 -0.3,0c-0.6,0 -1.2,-0.5 -1.3,-1.1l-0.2,-1.2c-0.1,-0.4 0,-0.7 0.2,-1c0.2,-0.3 0.6,-0.4 0.9,-0.5l9.3,-0.7c0.7,-0.1 1.3,0.5 1.4,1.2c0,0.4 -0.1,0.7 -0.3,1c0,0 0,0.1 -0.1,0.1l-6.7,8.6l5.4,-1.1c0.1,0 0.2,0 0.3,0c0.6,0 1.2,0.5 1.3,1.1l0.2,1.2c0.1,0.3 0,0.7 -0.3,1z" fill="#27aae1" stroke="none" stroke-width="1" stroke-linecap="butt" stroke-linejoin="miter"/><path d="M306.8,181.4c-0.2,0.2 -0.4,0.3 -0.6,0.3l-6.5,0.4c0,0 0,0 -0.1,0c-0.5,0 -0.9,-0.4 -0.9,-0.8c0,-0.2 0.1,-0.5 0.2,-0.7l4.1,-5.9l-3.1,0.7c-0.1,0 -0.1,0 -0.2,0c-0.4,0 -0.8,-0.3 -0.9,-0.8l-0.2,-0.9c-0.1,-0.3 0,-0.5 0.2,-0.7c0.2,-0.2 0.4,-0.3 0.6,-0.3l6.5,-0.5c0.5,0 0.9,0.3 1,0.8c0,0.3 -0.1,0.5 -0.2,0.7v0.1l-4.7,6l3.7,-0.7c0.1,0 0.1,0 0.2,0c0.5,0 0.8,0.3 0.9,0.8l0.2,0.9c0.1,0.1 0,0.4 -0.2,0.6z" fill="#27aae1" stroke="none" stroke-width="1" stroke-linecap="butt" stroke-linejoin="miter"/><path d="M298.3,192.4c-0.1,0.1 -0.2,0.2 -0.4,0.2l-3.8,0.2c-0.3,0 -0.5,-0.2 -0.5,-0.5c0,-0.1 0,-0.3 0.1,-0.4l2.4,-3.4l-1.8,0.4h-0.1c-0.3,0 -0.5,-0.2 -0.5,-0.5l-0.1,-0.5c0,-0.1 0,-0.3 0.1,-0.4c0.1,-0.1 0.2,-0.2 0.4,-0.2l3.7,-0.3c0.3,0 0.5,0.2 0.6,0.5c0,0.1 0,0.3 -0.1,0.4l-2.7,3.5l2.2,-0.4h0.1c0.3,0 0.5,0.2 0.5,0.5l0.1,0.5c0,0.2 -0.1,0.3 -0.2,0.4z" fill="#27aae1" stroke="none" stroke-width="1" stroke-linecap="butt" stroke-linejoin="miter"/></g></g></svg>