<svg version="1.1" xmlns="http://www.w3.org/2000/svg" xmlns:xlink="http://www.w3.org/1999/xlink" width="234.5" height="325.28155" viewBox="0,0,234.5,325.28155"><g transform="translate(-122.5,-18.99353)"><g data-paper-data="{&quot;isPaintingLayer&quot;:true}" fill-rule="nonzero" stroke-miterlimit="10" stroke-dasharray="" stroke-dashoffset="0" style="mix-blend-mode: normal"><g><path d="M192.9,21.1c9.4,2 9.4,11.5 9.4,11.5" fill="none" stroke="#fff200" stroke-width="3" stroke-linecap="round" stroke-linejoin="round"/><path d="M214.2,21.1c-11.5,-3.8 -11.9,11.5 -11.9,11.5c0,0 -1.7,-4.4 -8.1,-4.4" fill="none" stroke="#fff200" stroke-width="3" stroke-linecap="round" stroke-linejoin="round"/><path d="M194.7,35.8c2.1,-6.4 7.6,-3.2 7.6,-3.2c3.6,-8.1 11.9,-4.3 11.9,-4.3" fill="none" stroke="#fff200" stroke-width="3" stroke-linecap="round" stroke-linejoin="round"/><path d="M186.3,90.5l16,-57.9l44.8,60.6c0,0 -25.8,-5 -49.2,5.3z" fill="#9966ff" stroke="none" stroke-width="1" stroke-linecap="butt" stroke-linejoin="miter"/><path d="M221.5,58.7c-1.3,1.2 -3,1.9 -4.9,1.9c-4.1,0 -7.3,-3.3 -7.3,-7.3c0,-2.6 1.4,-5 3.5,-6.3z" fill="#fff200" stroke="none" stroke-width="1" stroke-linecap="butt" stroke-linejoin="miter"/><path d="M201,66.3c0,4.1 -3.3,7.3 -7.3,7.3c-0.9,0 -1.8,-0.1 -2.5,-0.5l3.9,-14.1c3.3,0.8 5.9,3.7 5.9,7.3z" fill="#fff200" stroke="none" stroke-width="1" stroke-linecap="butt" stroke-linejoin="miter"/><path d="M216.4,69.3c2.014,0 3.839,0.818 5.161,2.139c1.321,1.322 2.139,3.147 2.139,5.161c0,2.014 -0.818,3.839 -2.139,5.161c-1.322,1.321 -3.147,2.139 -5.161,2.139c-2.014,0 -3.839,-0.818 -5.161,-2.139c-1.321,-1.322 -2.139,-3.147 -2.139,-5.161c0,-2.014 0.818,-3.839 2.139,-5.161c1.322,-1.321 3.147,-2.139 5.161,-2.139z" fill="#fff200" stroke="none" stroke-width="1" stroke-linecap="butt" stroke-linejoin="miter"/><path d="M203.8,95.1c0,0.4 0,0.8 -0.1,1.1c-2,0.7 -3.9,1.4 -5.8,2.2l-8.3,-5.8c1,-2.9 3.7,-4.9 6.9,-4.9c4,0.1 7.3,3.4 7.3,7.4z" fill="#fff200" stroke="none" stroke-width="1" stroke-linecap="butt" stroke-linejoin="miter"/><path d="M247,93.2c0,0 -4.7,-0.9 -12,-1.2c-0.3,-0.8 -0.4,-1.6 -0.4,-2.4c0,-3.1 2,-5.8 4.7,-6.9z" fill="#fff200" stroke="none" stroke-width="1" stroke-linecap="butt" stroke-linejoin="miter"/><path d="M186.3,90.5l16,-57.9l44.8,60.6c0,0 -25.8,-5 -49.2,5.3z" fill="none" stroke="#414042" stroke-width="3" stroke-linecap="round" stroke-linejoin="round"/></g><g stroke="#000000" stroke-width="4" stroke-linecap="round" stroke-linejoin="round"><path d="M258.5,228.8c2.3,-10.4 5.2,-8.3 5.2,-8.3c1.6,1.1 2,3.4 3.8,5.1c5.4,5 18,15.7 22.3,12.7c9.5,-7.5 21,-15.1 29.7,-5.9c12.1,10.3 -7.7,20 -17.9,27.4c-7.8,4.3 -15.2,9.2 -28.3,-1.4c-10.6,-9.8 -15.1,-9.7 -15.1,-9.7c-6,-4 -2.1,-9.4 0.3,-19.9z" fill="#faa51d"/><path d="M289.7,238.4l-6,4.2" fill="none"/></g><g fill="#faa51d" stroke="#000000" stroke-width="4" stroke-linecap="round" stroke-linejoin="round"><path d="M266.5,276.9c0,0 -4.8,15.6 -2.6,40.9c0.9,10.8 21.3,-1.5 19.8,19.7c-0.4,6 -27,5.4 -32.8,3.3c-5.4,-2 -6.8,-4 -5.9,-9.8c3.2,-20.8 -7.3,-44.9 -7.3,-44.9"/><path d="M261.7,323.3c4.2,-0.9 8,-0.4 8,-0.4"/></g><path d="M268.8,245.7c0,19.1 4.8,47.3 -29.1,47.3c-33.9,0 -31.1,-25.7 -31.1,-44.8c0,-19.1 11.6,-24.4 31.1,-24.4c19.5,0 29.1,2.8 29.1,21.9z" fill="#faa51d" stroke="#000000" stroke-width="4" stroke-linecap="round" stroke-linejoin="round"/><path d="M261.5,254.1c0,12.1 2.6,30 -15.9,30c-18.5,0 -16.9,-16.3 -16.9,-28.4c0,-12.1 6.3,-15.4 16.9,-15.4c10.6,0 15.9,1.7 15.9,13.8z" fill="#ffffff" stroke="none" stroke-width="1" stroke-linecap="butt" stroke-linejoin="miter"/><g fill="#faa51d" stroke="#000000" stroke-width="4" stroke-linecap="round" stroke-linejoin="round"><path d="M237.6,293.9c0,0 -4.2,26.2 -3.3,38.1c0.5,5.8 -1.7,9.1 -7.8,10.2c-6.4,1.1 -27.9,1.6 -28.3,-5.5c-1.1,-21.5 15.1,-8.3 16.7,-19.1c3.8,-25 -3.8,-40.7 -3.8,-40.7"/><path d="M208.1,322.8c0,0 4.5,-0.6 8.6,0.5"/></g><path d="M217.8,229.9l-5.6,19.6l-26.3,1.9l5.3,-10.1l26.6,-11.4" fill="#faa51d" stroke="none" stroke-width="1" stroke-linecap="butt" stroke-linejoin="miter"/><path d="M191.1,241.3c2,-2 7.5,-7.4 12.5,-12.5c6.1,-6.3 19.3,-15.2 22.4,0" fill="#faa51d" stroke="#414042" stroke-width="3" stroke-linecap="round" stroke-linejoin="round"/><path d="M211.7,248.7c3.2,2.9 11.5,7.6 15.8,14.4c4.9,7.8 1.1,18.7 -7.8,21.3c-7.9,2.3 -15.1,-6.3 -28.5,-22.3c-3.8,-4.6 -5,-11 -2.6,-16.5c0,-0.1 0.1,-0.2 0.1,-0.2c2.3,-5.2 6.1,-9.7 10.4,-13.3l9.9,-8.2" fill="#faa51d" stroke="#000000" stroke-width="4" stroke-linecap="round" stroke-linejoin="round"/><path d="M250.6,87.9l20.6,-20l7.9,32c0,0 17.8,13.2 23.1,22.3c9,15.2 9.2,27.6 9.2,27.6c0,0 19.7,5.9 23.1,21.7c3.5,15.8 -8.9,45.8 -60.9,56.1c-52,10.4 -94,-3.7 -113.6,-35.4c-19.6,-31.6 10.627,-67.813 9.6,-67.1l-0.1,-3.6l-6.1,-48.8l36.1,23.5c0,0 12.5,-4.7 25.6,-5.3c4.9,-0.3 13.8,0.2 18.1,0.6z" fill="#faa51d" stroke="#000000" stroke-width="4" stroke-linecap="round" stroke-linejoin="round"/><path d="M310.2,151.1c0,0 19,4.6 22.4,20.4c4.2,15.8 -9.8,45.4 -59,54.4c-11.2,2.2 -21.2,4.1 -36.9,4.1c-24.4,0.1 -50.8,-15 -48.9,-46.7c1.1,-18.2 24.2,-16.8 24.2,-16.8l20.2,-5.3c0,0 20.3,4.7 32.4,2.1c12.1,-2.6 12.1,-12.1 12.1,-12.1l25.3,-7.4l6.9,5.7z" fill="#ffffff" stroke="none" stroke-width="1" stroke-linecap="butt" stroke-linejoin="miter"/><path d="M158.6,179.3c0,0 -10,1.3 -15.2,1.6c-5.2,0.3 -16.6,-0.7 -16.6,-0.7" fill="none" stroke="#000000" stroke-width="4" stroke-linecap="round" stroke-linejoin="round"/><path d="M355,153.6c0,0 -5.1,4.5 -12.6,7.1c-6.4,2.2 -19,4.3 -19,4.3" fill="none" stroke="#000000" stroke-width="4" stroke-linecap="round" stroke-linejoin="round"/><path d="M124.5,152.5c0,0 6.2,1.3 17.7,6.4c10.3,4.6 16.9,9.5 16.9,9.5" fill="none" stroke="#000000" stroke-width="4" stroke-linecap="round" stroke-linejoin="round"/><path d="M352.9,185.6c0,0 -5.2,0.5 -12.9,-0.3c-7.7,-0.7 -15.3,-3.8 -15.3,-3.8" fill="none" stroke="#000000" stroke-width="4" stroke-linecap="round" stroke-linejoin="round"/><path d="M242.2,91.7c7.9,1.9 10.8,4.1 10.8,4.1" fill="none" stroke="#000000" stroke-width="4" stroke-linecap="round" stroke-linejoin="round"/><path d="M207.9,102.3l-14.8,-10.3" fill="none" stroke="#000000" stroke-width="4" stroke-linecap="round" stroke-linejoin="round"/><path d="M296.2,122.6c8.1,12.4 8.4,26.6 0.7,31.6c-7.7,5.1 -20.6,-0.9 -28.7,-13.3c-8.1,-12.4 -8.4,-26.6 -0.7,-31.6c7.8,-5.1 20.6,0.9 28.7,13.3z" fill="#ffffff" stroke="#000000" stroke-width="4" stroke-linecap="round" stroke-linejoin="round"/><path d="M284.5,136.8c0.8,2.9 -0.7,5.8 -3.3,6.6c-2.6,0.7 -5.5,-1 -6.3,-3.9c-0.8,-2.9 0.7,-5.8 3.3,-6.6c2.7,-0.7 5.5,1 6.3,3.9" fill="#000000" stroke="none" stroke-width="1" stroke-linecap="butt" stroke-linejoin="miter"/><path d="M229.8,131.6c8.1,12.4 7.3,27.3 -1.9,33.3c-9.1,6 -23.1,0.8 -31.2,-11.7c-8.1,-12.4 -7.3,-27.3 1.9,-33.3c9.1,-5.9 23.1,-0.7 31.2,11.7z" fill="#ffffff" stroke="#000000" stroke-width="4" stroke-linecap="round" stroke-linejoin="round"/><path d="M217.5,146.5c0,3 -2.2,5.4 -5,5.4c-2.7,0 -5,-2.4 -5,-5.4c0,-3 2.2,-5.4 5,-5.4c2.7,0 5,2.4 5,5.4" fill="#000000" stroke="none" stroke-width="1" stroke-linecap="butt" stroke-linejoin="miter"/><path d="M261.2,159.9c4.8,-0.6 11.6,-4.2 12.4,1.2c0.1,2.4 -4.5,11.8 -9.8,12.1c-5.7,0.3 -15.8,-7 -15.4,-11.3c0.3,-4.3 8.6,-1.5 12.8,-2z" fill="#000000" stroke="#000000" stroke-width="4" stroke-linecap="round" stroke-linejoin="round"/><path d="M180,123.4c0,0 2.9,-15.9 18.2,-15.9" fill="#faa51d" stroke="#000000" stroke-width="4" stroke-linecap="round" stroke-linejoin="round"/><path d="M258.8,193.9c-11,4.7 -9.4,18.3 -3.4,19.6c-3.8,4.7 -16.2,3.6 -21.9,1.5c-20.5,-7.6 -8.1,-27.2 -8.1,-27.2c0,0 15.4,11.9 45.1,3.7" fill="#b74e6c" stroke="#000000" stroke-width="4" stroke-linecap="round" stroke-linejoin="round"/><path d="M227,211.5c0,0 5.6,-3.4 12.3,-2.6c5.5,0.7 12.4,6.9 12.4,6.9c0,0 -13.9,3.4 -24.7,-4.3z" fill="#ff6680" stroke="#231f20" stroke-width="3" stroke-linecap="round" stroke-linejoin="round"/></g></g></svg>