<svg xmlns="http://www.w3.org/2000/svg" xmlns:xlink="http://www.w3.org/1999/xlink" version="1.1" width="102.6422441048691" height="100.51054549647067" viewBox="-0.3629292271171686 0.8282890298332098 102.6422441048691 100.51054549647067">
  <!-- Exported by Scratch - http://scratch.mit.edu/ -->
  <g id="ID0.9819635571911931">
    <path id="Back_Leg" fill="#FAA51D" stroke="#000000" d="M 36.988 82.467 C 36.988 82.467 28.156 88.668 19.918 90.879 L 20.004 91.094 C 21.251 92.918 25.873 98.592 19.67 100.59 C 14.337 102.308 4.55 87.486 8.849 84.689 C 11.475 82.976 13.741 84.437 13.741 84.437 C 13.741 84.437 17.216 83.368 19.742 82.092 C 24.046 79.93 25.526 78.639 25.526 78.639 C 25.526 78.639 29.711 74.332 32.382 74.502 C 35.051 74.672 40.44 79.215 36.988 82.467 Z M 17.646 91.59 L 19.917 90.879 " stroke-width="1"/>
    <g id="Tail">
      <path id="Tail_1_" fill="#FAA51D" stroke="#000000" d="M 21.295 74.717 C 18.88 74.266 15.99 73.406 13.553 71.213 C 8.102 66.307 6.359 58.213 2.505 60.299 C -1.351 62.387 -1.277 75.465 10.858 79.494 C 15.04 80.885 18.856 80.889 21.949 80.806 C 22.761 80.78 29.667 80.151 32.028 76.731 C 34.389 73.312 32.747 72.46 31.938 71.987 C 31.128 71.516 24.711 75.355 21.295 74.717 Z " stroke-width="1"/>
      <path id="Tail_Tip" fill="#FFFFFF" d="M 2.641 60.607 C 1.204 61.385 0.385 64.004 0.647 66.981 C 0.788 68.575 1.751 72.633 5.615 76.053 C 5.89 75.508 4.64 73.117 6.357 71.674 C 8.194 70.131 11.217 70.449 12.21 70.613 C 10.547 68.801 9.206 66.801 8.034 64.973 C 5.751 61.422 4.475 59.616 2.641 60.607 Z " stroke-width="1"/>
    </g>
    <path id="R_Arm" fill="#FAA51D" stroke="#000000" d="M 50.94 70.596 C 50.94 70.596 52.174 70.762 55.684 74.273 C 59.193 77.782 61.709 76.433 64.595 74.997 C 67.472 73.555 75.131 68.87 71.084 65.18 C 67.034 61.492 64.877 66.326 61.368 67.585 C 57.857 68.845 56.308 65.098 54.512 63.298 C 53.922 62.704 53.324 62.2 52.783 61.792 C 52.783 61.792 51.811 61.034 50.878 64.583 C 49.943 68.124 48.933 69.127 50.94 70.596 Z " stroke-width="1"/>
    <g id="Front_Leg_x2F_Body_1_">
      <path id="Front_Leg_x2F_Body" fill="#FAA51D" stroke="#000000" d="M 45.524 77.724 C 46.712 76.812 47.92 75.323 49.475 73.01 C 50.771 71.084 52.174 67.433 52.174 67.433 C 53.049 64.912 54.109 60.857 50.273 60.137 C 48.72 59.846 46.194 60.039 42.603 59.361 C 39.01 58.68 35.805 56.839 33.086 61.594 C 30.367 66.351 23.495 69.865 32.029 78.156 C 32.029 78.156 36.93 81.998 42.794 87.795 C 47.626 92.569 54.838 98.398 54.838 98.398 C 54.838 98.398 73.811 100.586 74.372 97.704 C 76.295 87.915 59.597 90.794 59.597 90.794 C 59.597 90.794 54.993 86.861 52.87 84.999 C 49.393 81.941 41.745 74.228 41.745 74.228 " stroke-width="1"/>
      <path id="Belly" fill="#FFFFFF" d="M 47.74 66.051 C 42.8 63.395 40.526 66.036 39 67.573 C 36.355 70.227 42.442 74.183 42.442 74.183 L 45.504 77.272 C 48.503 73.776 50.083 71.398 50.796 69.338 C 50.654 68.397 49.918 67.225 47.74 66.051 Z " stroke-width="1"/>
    </g>
    <path id="L_Arm" fill="#FAA51D" stroke="#000000" d="M 28.697 68.93 C 29.446 68.359 31.587 66.728 33.551 65.273 C 35.979 63.474 39.668 59.424 34.628 57.627 C 29.588 55.826 27.12 59.231 23.108 62.572 C 20.949 64.373 17.8 65.27 18.789 68.781 C 19.782 72.293 23.651 82.188 30.578 78.951 C 37.508 75.713 28.779 69.77 27.518 67.795 " stroke-width="1"/>
    <g id="Head">
      <g id="Head_1_">
        <path id="Head_Fill" fill="#FAA51D" stroke="#000000" d="M 84.452 38.957 C 82.98 32.51 75.561 31.378 75.561 31.378 C 75.561 31.378 75.737 26.027 72.933 21.031 C 71.077 17.724 64.582 12.989 64.582 12.989 L 61.728 1.439 L 54.298 8.759 L 51.444 9.864 C 49.905 9.721 46.726 9.552 44.959 9.637 C 40.23 9.862 35.732 11.673 35.732 11.673 L 22.854 3.149 L 25.087 22.059 C 25.733 21.273 14.534 34.861 21.61 46.279 C 24.929 51.639 31.769 56.403 37.209 58.226 C 41.271 59.586 48.042 59.963 51.209 59.963 C 53.855 59.963 58.977 59.422 61.529 58.984 C 64.55 58.465 68.008 57.355 71.584 55.876 C 81.081 51.942 85.922 45.404 84.452 38.957 Z M 37.771 13.712 L 35.736 11.673 M 51.688 9.712 C 53.688 10.045 56.021 11.078 56.021 11.078 " stroke-width="1"/>
        <path id="Muzzle" fill="#FFFFFF" d="M 75.146 31.629 L 72.265 28.522 L 63.152 31.183 C 63.152 31.193 63.147 32.802 61.732 34.116 C 61.086 34.716 60.149 35.254 58.784 35.551 C 54.413 36.502 47.572 33.274 47.572 33.274 L 39.788 36.691 C 39.788 36.691 35.044 37.213 32.544 39.647 C 31.711 40.459 31.127 41.482 31.052 42.77 C 30.559 51.168 39.732 56.022 46.135 58.372 C 47.913 59.024 48.523 59.223 49.607 59.511 C 49.607 59.511 57.031 59.316 59.788 58.923 C 62.82 58.491 67.366 57.165 70.942 55.687 C 80.44 51.754 85.543 45.663 84.071 39.216 C 82.597 32.765 75.146 31.629 75.146 31.629 Z " stroke-width="1"/>
      </g>
      <g id="L_Eye">
        <path id="Eyeball_1_" fill="#FFFFFF" stroke="#000000" d="M 46.638 24.331 C 49.564 28.811 49.256 34.193 45.956 36.346 C 42.653 38.505 37.604 36.618 34.681 32.138 C 31.753 27.658 32.057 22.278 35.359 20.121 C 38.661 17.965 43.709 19.849 46.638 24.331 " stroke-width="1"/>
        <path id="Pupil_1_" d="M 44.85 30.219 C 44.85 31.3 44.047 32.176 43.049 32.176 C 42.057 32.176 41.245 31.298 41.245 30.219 C 41.245 29.139 42.057 28.262 43.049 28.262 C 44.045 28.262 44.85 29.139 44.85 30.219 " stroke-width="1"/>
      </g>
      <g id="R_Eye">
        <path id="Eyeball" fill="#FFFFFF" stroke="#000000" d="M 70.361 21.25 C 73.286 25.729 73.644 30.669 70.853 32.493 C 68.06 34.318 63.672 31.941 60.749 27.459 C 57.816 22.979 57.67 18.325 60.463 16.5 C 63.25 14.677 67.434 16.768 70.361 21.25 " stroke-width="1"/>
        <path id="Pupil" d="M 69.86 28.234 C 69.86 29.314 69.058 30.19 68.06 30.19 C 67.067 30.19 66.256 29.313 66.256 28.234 C 66.256 27.154 67.067 26.276 68.06 26.276 C 69.058 26.276 69.86 27.154 69.86 28.234 " stroke-width="1"/>
      </g>
      <path id="Nose" fill="#5E4A42" stroke="#000000" d="M 58.536 33.638 C 60.39 33.638 63.092 33.354 63.232 34.207 C 63.377 35.062 61.523 38.41 60.245 38.552 C 58.963 38.694 54.12 36.199 54.051 34.633 C 53.977 33.067 56.825 33.638 58.536 33.638 " stroke-width="1"/>
      <path id="Whisker_3_" d="M 20.75 38.102 C 20.727 38.085 18.368 36.342 14.748 34.74 C 10.736 32.963 8.485 32.48 8.464 32.475 L 8.709 31.3 C 8.804 31.32 11.09 31.806 15.234 33.642 C 18.985 35.303 21.367 37.066 21.466 37.14 L 20.75 38.102 L 20.75 38.102 Z " stroke-width="1"/>
      <path id="Whisker_2_" d="M 14.628 42.754 C 12.593 42.754 9.536 42.478 9.39 42.465 L 9.497 41.27 C 9.538 41.274 13.585 41.637 15.384 41.536 C 17.204 41.432 20.796 40.958 20.831 40.953 L 20.988 42.142 C 20.84 42.162 17.318 42.626 15.451 42.733 C 15.209 42.748 14.929 42.754 14.628 42.754 L 14.628 42.754 Z " stroke-width="1"/>
      <path id="Whisker_1_" d="M 80.524 36.975 L 80.33 35.79 C 80.376 35.783 84.854 35.046 87.091 34.267 C 89.664 33.373 91.417 31.852 91.436 31.837 L 92.227 32.739 C 92.149 32.807 90.279 34.43 87.485 35.4 C 85.151 36.214 80.711 36.944 80.524 36.975 L 80.524 36.975 Z " stroke-width="1"/>
      <path id="Whisker" d="M 89.551 44.479 C 88.739 44.479 87.646 44.444 86.362 44.316 C 83.504 44.03 80.778 42.937 80.663 42.89 L 81.113 41.778 C 81.14 41.789 83.799 42.853 86.481 43.122 C 89.153 43.389 90.999 43.233 91.016 43.232 L 91.12 44.427 C 91.077 44.431 90.508 44.479 89.551 44.479 L 89.551 44.479 Z " stroke-width="1"/>
      <path id="Mouth" fill="none" stroke="#231F20" stroke-width="1.2" d="M 45.545 40.947 C 45.545 40.947 55.892 44.001 59.762 44.843 C 63.629 45.685 70.613 46.527 70.613 46.527 C 70.613 46.527 62.624 56.772 53.286 54.172 C 43.947 51.575 44.115 45.687 45.545 40.947 Z "/>
    </g>
  </g>
  <g id="ID0.250842756126076">
    <path id="ID0.683834480587393" fill="#663B00" stroke="none" d="M 71.3713 62.0239 L 74.1505 65.2723 L 64.8694 73.2127 L 62.0903 69.9643 L 71.3713 62.0239 Z " stroke-width="0.6107109806572076"/>
    <path id="ID0.04181436216458678" fill="#663B00" stroke="none" d="M 68.7717 53.5078 L 81.6748 68.5895 L 78.8905 70.9716 L 65.9873 55.8899 L 68.7717 53.5078 Z " stroke-width="0.5036051708229299"/>
    <path id="ID0.39729202911257744" fill="none" stroke="#663B00" stroke-width="1.2214219613144153" stroke-linecap="round" d="M 71.5415 57.056 L 70.3143 58.9096 Z "/>
    <path id="ID0.3365994798950851" fill="#B2B2B2" stroke="#B2B2B2" stroke-width="1.2214219613144153" stroke-linecap="round" d="M 78.2623 64.7878 L 72.7041 58.291 L 94.2825 39.8296 L 101.6686 39.5384 L 99.4102 46.2929 L 77.7983 65.1848 Z "/>
    <path id="ID0.074321617372334" fill="none" stroke="#666666" stroke-width="1.2214219613144153" stroke-linecap="round" d="M 75.0512 61.5879 L 100.806 39.5533 "/>
  </g>
  <g id="ID0.250842756126076">
    <path id="ID0.683834480587393" fill="#663B00" stroke="none" d="M 38.4412 76.1218 L 38.1034 80.3834 L 25.9274 79.4184 L 26.2652 75.1568 L 38.4412 76.1218 Z " stroke-width="0.6107109763976992"/>
    <path id="ID0.04181436216458678" fill="#663B00" stroke="none" d="M 42.6358 68.2676 L 41.0676 88.0537 L 37.4148 87.7641 L 38.983 67.9781 L 42.6358 68.2676 Z " stroke-width="0.5036051673104494"/>
    <path id="ID0.39729202911257744" fill="none" stroke="#663B00" stroke-width="1.2214219527953984" stroke-linecap="round" d="M 42.0791 72.7344 L 39.9001 73.1743 Z "/>
    <path id="ID0.3365994798950851" fill="#B2B2B2" stroke="#B2B2B2" stroke-width="1.2214219527953984" stroke-linecap="round" d="M 41.35 82.9528 L 42.0255 74.4296 L 70.3348 76.6733 L 75.7565 81.6977 L 69.379 84.868 L 40.7412 82.9046 Z "/>
    <path id="ID0.074321617372334" fill="none" stroke="#666666" stroke-width="1.2214219527953984" stroke-linecap="round" d="M 41.3484 78.4196 L 75.1369 81.0975 "/>
  </g>
</svg>