<svg version="1.1" xmlns="http://www.w3.org/2000/svg" xmlns:xlink="http://www.w3.org/1999/xlink" width="180.26171" height="281.22573" viewBox="0,0,180.26171,281.22573"><g transform="translate(-150.17269,-40.35169)"><g data-paper-data="{&quot;isPaintingLayer&quot;:true}" fill-rule="nonzero" stroke-miterlimit="10" stroke-dasharray="" stroke-dashoffset="0" style="mix-blend-mode: normal"><g stroke="#000000" stroke-width="3.5" stroke-linecap="round" stroke-linejoin="round"><path d="M241.4844,208.02742c6.9,-6.1 7.9,-3.2 7.9,-3.2c0.6,1.6 -0.3,3.5 0.1,5.6c1.3,6.3 4.8,20.2 9.3,20.2c10.6,-0.5 22.5,-0.1 24,10.8c3.5,13.4 -15.5,10.2 -26.4,10.3c-7.6,-0.9 -15.4,-1.2 -19.3,-15.3c-2.6,-12.3 -5.8,-14.5 -5.8,-14.5c-2.2,-5.9 3.3,-7.7 10.2,-13.9z" fill="#faa51d"/><path d="M258.7844,230.52742h-6.4" fill="none"/></g><g fill="#faa51d" stroke="#000000" stroke-width="3.5" stroke-linecap="round" stroke-linejoin="round"><path d="M251.6844,263.02742c0,0 -4.2,13.6 -2.3,35.5c0.8,9.4 18.5,-1.3 17.2,17.1c-0.4,5.2 -23.5,4.7 -28.5,2.8c-4.7,-1.8 -5.9,-3.5 -5.1,-8.5c2.8,-18.1 -6.3,-39 -6.3,-39"/><path d="M247.4844,303.22742c3.6,-0.7 6.9,-0.3 6.9,-0.3"/></g><path d="M253.6844,235.92742c0,16.6 4.2,41.1 -25.3,41.1c-29.5,0 -27,-22.3 -27,-38.9c0,-16.6 10.1,-21.2 27,-21.2c16.9,0 25.3,2.4 25.3,19z" fill="#faa51d" stroke="#000000" stroke-width="3.5" stroke-linecap="round" stroke-linejoin="round"/><path d="M247.2844,243.22742c0,10.5 2.3,26.1 -13.8,26.1c-16.1,0 -14.7,-14.1 -14.7,-24.7c0,-10.6 5.5,-13.4 14.7,-13.4c9.2,0 13.8,1.5 13.8,12z" fill="#ffffff" stroke="none" stroke-width="1" stroke-linecap="butt" stroke-linejoin="miter"/><g fill="#faa51d" stroke="#000000" stroke-width="3.5" stroke-linecap="round" stroke-linejoin="round"><path d="M226.4844,277.82742c0,0 -3.7,22.8 -2.9,33.1c0.4,5.1 -1.5,8 -6.8,8.9c-5.5,0.9 -24.2,1.4 -24.5,-4.8c-0.9,-18.7 13.1,-7.2 14.5,-16.6c3.3,-21.8 -3.3,-35.4 -3.3,-35.4"/><path d="M200.8844,302.82742c0,0 3.9,-0.5 7.5,0.4"/></g><path d="M209.3844,222.22742l-4.9,17l-22.9,1.7l4.6,-8.9l23.2,-9.8" fill="#faa51d" stroke="none" stroke-width="1" stroke-linecap="butt" stroke-linejoin="miter"/><path d="M186.1844,232.02742c1.7,-1.6 6.5,-6.4 10.8,-10.8c5.4,-5.4 16.8,-13.2 19.5,0" fill="#faa51d" stroke="#414042" stroke-width="2.6695" stroke-linecap="round" stroke-linejoin="round"/><path d="M204.0844,238.52742c2.8,2.5 10,6.6 13.7,12.5c4.3,6.8 0.9,16.2 -6.7,18.5c-6.9,2 -13.1,-5.5 -24.7,-19.4c-3.3,-4 -4.3,-9.6 -2.2,-14.3c0,-0.1 0.1,-0.1 0.1,-0.2c2,-4.5 5.3,-8.4 9.1,-11.6l8.6,-7.1" fill="#faa51d" stroke="#000000" stroke-width="3.5" stroke-linecap="round" stroke-linejoin="round"/><path d="M192.8844,48.82742c1.9,-5.4 6.6,-2.7 6.6,-2.7c3.1,-6.9 10.2,-3.7 10.2,-3.7" fill="none" stroke="#fff200" stroke-width="2.6695" stroke-linecap="round" stroke-linejoin="round"/><path d="M237.8844,98.12742l20.5,-20.5l6.4,28.6c0,0 12.3,6.1 20.1,20.3c7.8,14.2 6.6,25.8 6.6,25.8c0,0 13.5,1.7 15.5,19.4c3.8,34 -36.3,56.3 -87.9,51.6c-39,-3.6 -68.7,-28.6 -67.1,-59.4c1.5,-27.7 14.9,-37.6 14.9,-37.6l-4.4,-46.7l33.2,23.1c0,0 9.9,-5.2 21.3,-5.6c11.4,-0.5 21,1 20.9,1z" fill="#f9a41e" stroke="none" stroke-width="1" stroke-linecap="butt" stroke-linejoin="miter"/><path d="M291.6844,152.32742c7.9,1.5 12.8,5.2 15.5,19.4c3.7,18.9 -14.4,58.3 -87.9,51.6c-24.3,-2.3 -50.7,-13.3 -42,-45.7c7.9,-29.5 53,-10.3 71,-13.7c18,-3.3 24.9,-15.1 43.4,-11.6z" fill="#ffffff" stroke="none" stroke-width="1" stroke-linecap="butt" stroke-linejoin="miter"/><path d="M328.6844,155.22742c0,0 -4.6,3.8 -11.3,6c-5.7,1.8 -17,3.4 -17,3.4" fill="none" stroke="#000000" stroke-width="3.5" stroke-linecap="round" stroke-linejoin="round"/><path d="M326.1844,183.42742c0,0 -4.6,0.3 -11.4,-0.5c-6.9,-0.8 -13.6,-3.7 -13.6,-3.7" fill="none" stroke="#000000" stroke-width="3.5" stroke-linecap="round" stroke-linejoin="round"/><path d="M200.7844,106.72742l-9.3,-6.9" fill="none" stroke="#000000" stroke-width="3.5" stroke-linecap="round" stroke-linejoin="round"/><path d="M237.8844,98.12742l20.5,-20.5l6.4,28.6c0,0 12.3,6.1 20.1,20.3c7.8,14.2 6.6,25.8 6.6,25.8c0,0 13.5,1.7 15.5,19.4c3.8,34 -36.3,56.3 -87.9,51.6c-39,-3.6 -68.7,-28.6 -67.1,-59.4c1.5,-27.7 14.9,-37.6 14.9,-37.6l-4.4,-46.7l33.2,23.1c0,0 9.9,-5.2 21.3,-5.6c11.4,-0.5 21,1 20.9,1z" fill="none" stroke="#000000" stroke-width="3.5" stroke-linecap="round" stroke-linejoin="round"/><path d="M202.4844,183.02742c0,0 -8.8,2.1 -13.3,2.8c-4.5,0.7 -14.7,0.8 -14.7,0.8" fill="none" stroke="#000000" stroke-width="3.5" stroke-linecap="round" stroke-linejoin="round"/><path d="M169.9844,162.32742c0,0 5.7,0.6 16.3,4.1c9.5,3.1 15.8,6.9 15.8,6.9" fill="none" stroke="#000000" stroke-width="3.5" stroke-linecap="round" stroke-linejoin="round"/><path d="M279.5844,126.72742c7,11.2 6.9,23.8 0,28.1c-7,4.3 -18.3,-1.2 -25.2,-12.4c-7,-11.2 -6.9,-23.8 0,-28.1c6.9,-4.4 18.2,1.2 25.2,12.4z" fill="#ffffff" stroke="#000000" stroke-width="3.5" stroke-linecap="round" stroke-linejoin="round"/><path d="M270.3844,134.06908c0.7,2.9 -0.8,5.8 -3.5,6.5c-2.7,0.7 -5.5,-1.1 -6.2,-4c-0.7,-2.9 0.8,-5.8 3.5,-6.5c2.7,-0.7 5.5,1.1 6.2,4" fill="#000000" stroke="none" stroke-width="1" stroke-linecap="butt" stroke-linejoin="miter"/><path d="M220.2844,133.42742c7,11.2 5.9,24.4 -2.4,29.6c-8.3,5.1 -20.6,0.2 -27.6,-11c-7,-11.2 -5.9,-24.4 2.3,-29.6c8.4,-5.1 20.7,-0.2 27.7,11z" fill="#ffffff" stroke="#000000" stroke-width="3.5" stroke-linecap="round" stroke-linejoin="round"/><path d="M210.7844,142.56908c-0.1,3.1 -2.4,5.5 -5.3,5.5c-2.8,-0.1 -5.1,-2.6 -5,-5.7c0.1,-3.1 2.4,-5.5 5.3,-5.5c2.8,0 5,2.6 5,5.7" fill="#000000" stroke="none" stroke-width="1" stroke-linecap="butt" stroke-linejoin="miter"/><path d="M246.4844,158.32742c4.3,-0.4 11.5,-2.6 12.2,2.2c0.1,2.1 -4.2,10.4 -9,10.6c-5.1,0.2 -13.7,-5.4 -13.4,-9.2c0.4,-3.9 6.4,-3.3 10.2,-3.6z" fill="#000000" stroke="#000000" stroke-width="3.5" stroke-linecap="round" stroke-linejoin="round"/><path d="M185.7844,95.82742l13.7,-49.8l38.5,52.1c0,0 -22.1,-4.3 -42.3,4.6z" fill="#9966ff" stroke="none" stroke-width="1" stroke-linecap="butt" stroke-linejoin="miter"/><path d="M241.4844,223.72742c-102.5,-3.2 -74.5,-97.3 -74.5,-97.3" fill="none" stroke="#000000" stroke-width="2.6695" stroke-linecap="round" stroke-linejoin="round"/><path d="M224.5844,228.12742c1.4,-6.5 14.4,-4.3 14.4,-4.3c-0.6,8.4 -15.9,10.8 -14.4,4.3z" fill="none" stroke="#000000" stroke-width="2.6695" stroke-linecap="round" stroke-linejoin="round"/><path d="M238.9844,223.82742c0,0 13,-2.2 14.4,4.3c1.4,6.5 -13.9,4.1 -14.4,-4.3z" fill="none" stroke="#000000" stroke-width="2.6695" stroke-linecap="round" stroke-linejoin="round"/><path d="M216.0844,68.52742c-1.1,1 -2.6,1.6 -4.2,1.6c-3.5,0 -6.3,-2.8 -6.3,-6.3c0,-2.3 1.2,-4.3 3,-5.4z" fill="#fff200" stroke="none" stroke-width="1" stroke-linecap="butt" stroke-linejoin="miter"/><path d="M198.3844,75.12742c0,3.5 -2.8,6.3 -6.3,6.3c-0.8,0 -1.5,-0.1 -2.2,-0.4l3.3,-12.1c3,0.5 5.2,3.1 5.2,6.2z" fill="#fff200" stroke="none" stroke-width="1" stroke-linecap="butt" stroke-linejoin="miter"/><path d="M211.5844,77.62742c1.738,0 3.313,0.706 4.454,1.846c1.14,1.141 1.846,2.716 1.846,4.454c0,1.738 -0.706,3.313 -1.846,4.454c-1.141,1.14 -2.716,1.846 -4.454,1.846c-1.738,0 -3.313,-0.706 -4.454,-1.846c-1.14,-1.141 -1.846,-2.716 -1.846,-4.454c0,-1.738 0.706,-3.313 1.846,-4.454c1.141,-1.14 2.716,-1.846 4.454,-1.846z" fill="#fff200" stroke="none" stroke-width="1" stroke-linecap="butt" stroke-linejoin="miter"/><path d="M200.7844,99.82742c0,0.3 0,0.6 -0.1,1c-1.7,0.6 -3.3,1.2 -5,1.9l-7.1,-5c0.8,-2.5 3.2,-4.2 5.9,-4.2c3.5,0 6.3,2.8 6.3,6.3z" fill="#fff200" stroke="none" stroke-width="1" stroke-linecap="butt" stroke-linejoin="miter"/><path d="M237.9844,98.12742c0,0 -4.1,-0.8 -10.3,-1c-0.2,-0.6 -0.4,-1.3 -0.4,-2.1c0,-2.7 1.7,-5 4,-5.9z" fill="#fff200" stroke="none" stroke-width="1" stroke-linecap="butt" stroke-linejoin="miter"/><path d="M185.7844,95.82742l13.7,-49.8l38.5,52.1c0,0 -22.1,-4.3 -42.3,4.6z" fill="none" stroke="#000000" stroke-width="2.6695" stroke-linecap="round" stroke-linejoin="round"/><path d="M271.4844,194.62742l-13.9,-2.1v-5.6l13.9,-2.1v9.8" fill="#ffffff" stroke="#000000" stroke-width="2.6695" stroke-linecap="round" stroke-linejoin="round"/><path d="M251.1844,180.22742c5.8,-2.8 12.1,5.3 4.3,9.4" fill="#ffffff" stroke="#000000" stroke-width="3.5" stroke-linecap="round" stroke-linejoin="round"/><path d="M255.4844,189.72742c7.8,4.1 1.5,12.2 -4.3,9.4" fill="#ffffff" stroke="#000000" stroke-width="3.5" stroke-linecap="round" stroke-linejoin="round"/><path d="M319.1844,175.52742v28.4l-47.7,-9.3c-1,0 -1.7,-2.2 -1.7,-4.9c0,-2.7 0.8,-4.9 1.7,-4.9z" fill="#9966ff" stroke="none" stroke-width="1" stroke-linecap="butt" stroke-linejoin="miter"/><path d="M295.7844,180.12742c-7.7,9.9 3,19.7 3,19.7l-6.6,-1.5c-9.1,-7.9 -3.2,-16.9 -3.2,-16.9z" fill="#fff200" stroke="none" stroke-width="1" stroke-linecap="butt" stroke-linejoin="miter"/><path d="M309.4844,177.42742c-9.3,10.9 1.5,24.9 1.5,24.9l-7.2,-1.4c-9,-11.2 -1.1,-22.2 -1.1,-22.2z" fill="#fff200" stroke="none" stroke-width="1" stroke-linecap="butt" stroke-linejoin="miter"/><path d="M282.3844,182.72742c-3.8,8.2 3.3,14.7 3.3,14.7l-5.4,-1.1c-7,-5.1 -2.9,-12.7 -2.9,-12.7z" fill="#fff200" stroke="none" stroke-width="1" stroke-linecap="butt" stroke-linejoin="miter"/><path d="M319.1844,175.52742c1.379,0 2.629,1.591 3.535,4.162c0.905,2.57 1.465,6.12 1.465,10.038c0,3.918 -0.56,7.468 -1.465,10.038c-0.906,2.571 -2.156,4.162 -3.535,4.162c-1.379,0 -2.629,-1.591 -3.535,-4.162c-0.905,-2.57 -1.465,-6.12 -1.465,-10.038c0,-3.918 0.56,-7.468 1.465,-10.038c0.906,-2.571 2.156,-4.162 3.535,-4.162z" fill="#6f52cc" stroke="#000000" stroke-width="2.6695" stroke-linecap="round" stroke-linejoin="round"/><path d="M319.1844,203.92742l-47.7,-9.3c-1,0 -1.7,-2.2 -1.7,-4.9c0,-2.7 0.8,-4.9 1.7,-4.9l47.7,-9.3" fill="none" stroke="#000000" stroke-width="2.6695" stroke-linecap="round" stroke-linejoin="round"/></g></g></svg>