<svg version="1.1" xmlns="http://www.w3.org/2000/svg" xmlns:xlink="http://www.w3.org/1999/xlink" width="119.30164" height="140.07997" viewBox="0,0,119.30164,140.07997"><defs><linearGradient x1="198.7233" y1="143.8448" x2="267.9589" y2="143.8448" gradientUnits="userSpaceOnUse" id="color-1"><stop offset="0" stop-color="#fff33b"/><stop offset="0.05949" stop-color="#ffe029"/><stop offset="0.1303" stop-color="#ffd218"/><stop offset="0.2032" stop-color="#fec90f"/><stop offset="0.2809" stop-color="#fdc70c"/><stop offset="0.6685" stop-color="#f3903f"/><stop offset="0.8876" stop-color="#ed683c"/><stop offset="1" stop-color="#e93e3a"/></linearGradient></defs><g transform="translate(-171.43703,-107.49803)"><g data-paper-data="{&quot;isPaintingLayer&quot;:true}" fill-rule="nonzero" stroke-miterlimit="10" stroke-dasharray="" stroke-dashoffset="0" style="mix-blend-mode: normal"><g stroke="#58595b" stroke-linecap="round" stroke-linejoin="round"><path d="M260.2939,238.161l1.6023,4.953" fill="none" stroke-width="2.03934"/><path d="M259.5788,235.902c1.4898,-0.487 2.9208,-0.68 4.0296,-0.598c1.1088,0.081 1.895,0.438 2.0946,1.048c0.1997,0.611 -0.2243,1.362 -1.0705,2.084c-0.8462,0.721 -2.1151,1.41 -3.6049,1.897c-1.4898,0.487 -2.9208,0.681 -4.0296,0.599c-1.1088,-0.082 -1.8949,-0.438 -2.0946,-1.049c-0.1996,-0.61 0.2243,-1.362 1.0705,-2.083c0.8462,-0.721 2.1152,-1.41 3.6049,-1.898z" fill="#ffffff" stroke-width="2.03939"/><path d="M250.0972,206.9886l10.051,30.4444" fill="none" stroke-width="2.03934"/></g><g fill="#faa51f" stroke="#000000" stroke-width="2.03934" stroke-linecap="round" stroke-linejoin="round"><path d="M246.3098,213.252c0,0 -2.4763,8.012 -1.311,20.831c0.437,5.535 10.7794,-0.729 10.0511,10.051c-0.2914,3.059 -13.6927,2.767 -16.7517,1.602c-2.7677,-1.02 -3.4961,-2.039 -3.0591,-4.953c1.6024,-10.633 -3.7873,-22.869 -3.7873,-22.869"/><path d="M243.8335,236.85c2.185,-0.437 4.0787,-0.145 4.0787,-0.145"/></g><path d="M223.2945,208.882c1.311,0.292 4.0786,0.874 2.185,6.701c-1.8937,5.827 -11.3621,9.614 -12.5274,10.051c-4.2243,1.457 -9.614,3.059 -16.169,2.913c-18.9368,-0.437 -24.6178,-18.791 -20.1021,-23.4521c4.5157,-4.6614 10.488,6.1181 20.2477,10.6341c4.37,2.039 8.74,2.039 12.3817,1.602c5.0984,-0.583 12.5274,-8.74 13.9841,-8.449z" fill="#faa51f" stroke="none" stroke-width="1.45667" stroke-linecap="butt" stroke-linejoin="miter"/><path d="M185.2754,207.28c3.3503,2.768 9.614,7.429 9.614,7.429c0,0 -6.118,0.874 -8.303,4.224c-2.185,3.351 2.622,8.158 0,7.284c-2.3307,-1.457 -5.9724,-3.496 -8.8857,-8.012c-2.9134,-4.516 -3.2047,-11.7991 -0.7284,-13.5471c2.7677,-1.6023 5.0984,0 8.3031,2.6221z" fill="#ffffff" stroke="none" stroke-width="1.45667" stroke-linecap="butt" stroke-linejoin="miter"/><path d="M223.2945,208.882c1.311,0.292 4.0786,0.874 2.185,6.701c-1.8937,5.827 -11.3621,9.614 -12.5274,10.051c-4.2243,1.457 -9.614,3.059 -16.169,2.913c-18.9368,-0.437 -24.6178,-18.791 -20.1021,-23.4521c4.5157,-4.6614 10.488,6.1181 20.2477,10.6341c4.37,2.039 8.74,2.039 12.3817,1.602c5.0984,-0.583 12.5274,-8.74 13.9841,-8.449z" fill="none" stroke="#000000" stroke-width="2.03934" stroke-linecap="round" stroke-linejoin="round"/><path d="M232.9085,210.193" fill="#faa51f" stroke="#8e5322" stroke-width="2.03934" stroke-linecap="round" stroke-linejoin="round"/><path d="M247.4752,197.3745c0,9.7595 2.4763,24.0355 -14.8581,24.0355c-17.3343,0 -15.732,-13.11 -15.732,-22.8701c0,-9.7597 5.9724,-12.3817 15.732,-12.3817c9.9054,0.1457 14.8581,1.4567 14.8581,11.2163z" fill="#faa51f" stroke="#000000" stroke-width="2.03934" stroke-linecap="round" stroke-linejoin="round"/><path d="M243.6878,201.7446c0,6.1184 1.311,15.2954 -8.0117,15.2954c-9.4683,0 -8.5943,-8.303 -8.5943,-14.4214c0,-6.1181 3.2047,-7.8661 8.5943,-7.8661c5.2441,-0.1456 8.0117,0.7284 8.0117,6.9921z" fill="#ffffff" stroke="none" stroke-width="1.45667" stroke-linecap="butt" stroke-linejoin="miter"/><g stroke="#58595b" stroke-linecap="round" stroke-linejoin="round"><path d="M203.9207,240.492l-1.6023,4.953" fill="none" stroke-width="2.03934"/><path d="M198.5277,238.738c0.1996,-0.61 0.9858,-0.966 2.0946,-1.048c1.1088,-0.082 2.5398,0.111 4.0296,0.599c1.4898,0.487 2.7587,1.176 3.6049,1.897c0.8462,0.721 1.2701,1.473 1.0705,2.084c-0.1997,0.61 -0.9858,0.966 -2.0946,1.048c-1.1088,0.082 -2.5398,-0.112 -4.0296,-0.599c-1.4898,-0.487 -2.7587,-1.176 -3.6049,-1.897c-0.8462,-0.721 -1.2702,-1.473 -1.0705,-2.084z" fill="#ffffff" stroke-width="2.03939"/><path d="M214.1174,209.319l-9.9053,30.445" fill="none" stroke-width="2.03934"/></g><g fill="#faa51f" stroke="#000000" stroke-width="2.03934" stroke-linecap="round" stroke-linejoin="round"><path d="M231.5975,221.847c0,0 -2.185,13.255 -1.748,19.373c0.2913,3.059 -0.874,4.662 -3.933,5.244c-3.2047,0.583 -14.2754,0.874 -14.4211,-2.767c-0.5826,-11.071 7.5747,-4.225 8.4487,-9.76c1.8937,-12.673 -1.8937,-20.685 -1.8937,-20.685"/><path d="M216.4481,236.559c0,0 2.3307,-0.291 4.37,0.291"/></g><g stroke="#000000" stroke-width="2.03934" stroke-linecap="round" stroke-linejoin="round"><path d="M213.2434,203.2012c8.1574,2.0394 7.2834,4.9528 7.1377,7.2838c-0.2913,5.826 -5.3897,6.409 -16.0234,2.039c-7.866,-3.205 -6.118,-18.0628 9.3227,-26.8028l11.5077,2.0393" fill="#faa51f"/><path d="M217.7591,200.5792" fill="none"/><path d="M213.2434,203.2012l3.933,-5.9723" fill="#faa51f"/><path d="M213.2434,203.2012l-1.748,-0.5826" fill="none"/></g><g fill="#e6e7e8" stroke="#bcbec0" stroke-width="2.03934" stroke-linecap="round" stroke-linejoin="round"><path d="M247.9122,190.2369c0,0 -15.0037,17.9171 -49.5268,2.0393l8.5943,-10.1967c0,0 14.7124,13.2557 40.9325,8.1574z"/><path d="M198.3854,192.2762l-8.8857,-4.5157"/><path d="M199.9877,189.7999l-7.1376,-3.496"/><path d="M196.4917,184.2645l5.5354,3.3504"/><path d="M203.1924,185.2842l-4.6613,-3.059"/></g><g stroke="#000000" stroke-width="2.03934" stroke-linecap="round" stroke-linejoin="round"><path d="M238.8808,187.7605l11.5077,-2.0393c11.9447,9.4683 14.421,24.4718 9.3227,26.8028c-10.3424,4.807 -15.732,3.787 -16.0234,-2.039c-0.1456,-2.331 -1.0196,-5.2444 7.1377,-7.2838" fill="#faa51f"/><path d="M246.3098,200.5792" fill="none"/><path d="M250.8255,203.2012l-3.933,-6.118" fill="#faa51f"/><path d="M250.8255,203.2012l1.8937,-0.5826" fill="none"/></g><path d="M236.6958,118.7144l10.488,-10.1967l4.0787,16.3147c0,0 9.0314,6.7007 11.799,11.362c4.5157,7.7204 4.6614,13.984 4.6614,13.984c0,0 10.0511,3.059 11.7991,11.0707c1.748,8.0117 -4.516,23.3067 -31.0272,28.5508c-26.5113,5.244 -47.7787,-1.8937 -57.8298,-18.0627c-9.9053,-16.0234 5.8267,-35.2515 4.9527,-34.0861l-3.2047,-26.6571l18.3541,11.9447c0,0 6.2637,-2.4763 12.9644,-2.7677c2.4763,-0.1456 6.992,0.1457 9.177,0.2914z" fill="#faa51f" stroke="none" stroke-width="1.45667" stroke-linecap="butt" stroke-linejoin="miter"/><path d="M267.1402,150.7611c0,0 9.6138,2.3307 11.3618,10.3424c2.185,8.0116 -4.952,23.161 -30.0072,27.6767c-5.681,1.0197 -10.7793,2.0393 -18.791,2.0393c-12.3817,0.1457 -25.9287,-7.5747 -24.9091,-23.7437c0.5827,-9.3227 12.3817,-8.5943 12.3817,-8.5943l10.3424,-2.6221c0,0 10.3424,2.3307 16.4604,1.0197c6.118,-1.311 6.118,-6.118 6.118,-6.118l12.8187,-3.7873l3.496,2.9133z" fill="#ffffff" stroke="none" stroke-width="1.45667" stroke-linecap="butt" stroke-linejoin="miter"/><path d="M289.719,151.9264c0,0 -2.622,2.3307 -6.41,3.6417c-3.204,1.1653 -9.614,2.185 -9.614,2.185" fill="none" stroke="#000000" stroke-width="2.03934" stroke-linecap="round" stroke-linejoin="round"/><path d="M288.845,168.2411c0,0 -2.622,0.2914 -6.555,-0.1456c-4.079,-0.2914 -7.866,-1.8937 -7.866,-1.8937" fill="none" stroke="#000000" stroke-width="2.03934" stroke-linecap="round" stroke-linejoin="round"/><path d="M207.4168,120.608l7.5746,5.244" fill="none" stroke="#000000" stroke-width="2.03934" stroke-linecap="round" stroke-linejoin="round"/><path d="M236.6958,118.7144l10.488,-10.1967l4.0787,16.3147c0,0 9.0314,6.7007 11.799,11.362c4.5157,7.7204 4.6614,13.984 4.6614,13.984c0,0 10.0511,3.059 11.7991,11.0707c1.748,8.0117 -4.516,23.3067 -31.0272,28.5508c-26.5113,5.244 -47.7787,-1.8937 -57.8298,-18.0627c-9.9053,-16.0234 5.8267,-35.2515 4.9527,-34.0861l-3.2047,-26.6571l18.3541,11.9447c0,0 6.2637,-2.4763 12.9644,-2.7677c2.4763,-0.1456 6.992,0.1457 9.177,0.2914z" fill="none" stroke="#000000" stroke-width="2.03934" stroke-linecap="round" stroke-linejoin="round"/><path d="M189.791,165.0365c0,0 -5.0983,0.7283 -7.7203,0.874c-2.622,0.1456 -8.4487,-0.437 -8.4487,-0.437" fill="none" stroke="#000000" stroke-width="2.03934" stroke-linecap="round" stroke-linejoin="round"/><path d="M172.4567,151.4894c0,0 3.2046,0.5827 9.0313,3.2047c5.244,2.3307 8.5944,4.807 8.5944,4.807" fill="none" stroke="#000000" stroke-width="2.03934" stroke-linecap="round" stroke-linejoin="round"/><g><path d="M259.8569,136.1944c4.0786,6.2637 4.2243,13.547 0.2913,16.0234c-3.933,2.622 -10.488,-0.437 -14.5667,-6.8464c-4.0787,-6.2637 -4.2243,-13.547 -0.2913,-16.0233c3.933,-2.4764 10.488,0.5826 14.5667,6.8463z" fill="#ffffff" stroke="#8e5322" stroke-width="2.03934" stroke-linecap="round" stroke-linejoin="round"/><path d="M259.7112,141.4384c0.437,1.4567 -0.2913,2.9134 -1.748,3.3504c-1.311,0.437 -2.7677,-0.437 -3.2047,-2.0394c-0.437,-1.4567 0.2914,-2.9133 1.748,-3.3503c1.4567,-0.2914 2.7677,0.5826 3.2047,2.0393" fill="#414142" stroke="none" stroke-width="1.45667" stroke-linecap="butt" stroke-linejoin="miter"/></g><g><path d="M226.0621,140.8557c4.0787,6.2637 3.6417,13.8384 -1.0196,16.8974c-4.6614,3.059 -11.7991,0.437 -15.8777,-5.9723c-4.0787,-6.2637 -3.6417,-13.8384 1.0196,-16.8974c4.6614,-3.059 11.7991,-0.437 15.8777,5.9723z" fill="#ffffff" stroke="#8e5322" stroke-width="2.03934" stroke-linecap="round" stroke-linejoin="round"/><path d="M225.6251,146.3911c0,1.4567 -1.1653,2.7677 -2.4763,2.7677c-1.4567,0 -2.4764,-1.1654 -2.4764,-2.7677c0,-1.4567 1.1654,-2.7677 2.4764,-2.7677c1.311,0 2.4763,1.1654 2.4763,2.7677" fill="#414142" stroke="none" stroke-width="1.45667" stroke-linecap="butt" stroke-linejoin="miter"/></g><path d="M242.0855,155.2768c2.4763,-0.2914 5.8267,-2.185 6.2637,0.5826c0,1.1654 -2.3307,5.9724 -4.9527,6.1181c-2.9133,0.1456 -8.0117,-3.496 -7.866,-5.6811c0.1456,-2.185 4.37,-0.874 6.555,-1.0196z" fill="#000000" stroke="#000000" stroke-width="2.03934" stroke-linecap="round" stroke-linejoin="round"/><path d="M240.3375,179.4575c-7.866,1.6023 -11.5077,-1.748 -11.5077,-1.748" fill="#ffffff" stroke="#000000" stroke-width="2.03934" stroke-linecap="round" stroke-linejoin="round"/><g stroke-width="2.03934" stroke-linecap="butt" stroke-linejoin="miter"><path d="M262.4789,158.4815c-8.4487,-0.437 -14.4211,-10.0511 -22.5784,-8.4487c-8.1574,1.6023 -6.4094,10.925 -19.6651,15.295c-16.3147,5.3897 -18.2083,-11.0707 -30.7357,-13.2557c-4.2243,-0.7283 -3.3503,-13.11 -0.437,-13.8384c15.0037,-3.7873 18.7911,-10.7793 42.3891,-15.0037c13.2557,-2.4763 27.2397,0.874 33.0664,6.4094c3.2047,3.059 4.9527,6.555 5.8267,10.925c1.4571,6.2637 4.0791,18.4997 -7.866,17.9171zM261.7505,131.6787c-7.1376,-6.992 -29.279,-7.1377 -44.7197,-0.7283c-15.4407,6.4093 -21.7044,11.362 -16.4604,19.228c0,0 7.5747,12.6731 15.8777,11.0707c12.9644,-2.3306 15.1494,-16.169 21.5587,-17.3343c6.4094,-1.0197 20.2477,10.7793 26.2201,10.051c5.9723,-0.874 4.6613,-15.4407 -2.4764,-22.2871z" fill="#63bc46" stroke="#1f7139"/><path d="M264.2269,153.9658c-5.9724,0.7283 -19.8107,-11.0707 -26.2201,-10.051c-6.4093,1.1653 -8.5943,15.0037 -21.5587,17.3343c-8.303,1.6024 -15.8777,-11.0707 -15.8777,-11.0707c-5.244,-7.866 1.0197,-12.8187 16.4604,-19.228c15.4407,-6.4094 37.5821,-6.2637 44.7197,0.7283c7.1377,6.8464 8.4487,21.4131 2.4764,22.2871z" fill="url(#color-1)" stroke="#207139"/></g><path d="M206.1057,141.2927l14.4211,13.4014" fill="none" stroke="#ffffff" stroke-width="2.91334" stroke-linecap="round" stroke-linejoin="round"/><path d="M224.8968,149.0131l-12.0904,-10.3424" fill="none" stroke="#ffffff" stroke-width="5.82668" stroke-linecap="round" stroke-linejoin="round"/></g></g></svg>