<svg version="1.1" xmlns="http://www.w3.org/2000/svg" xmlns:xlink="http://www.w3.org/1999/xlink" width="81.9" height="97.26454" viewBox="0,0,81.9,97.26454"><g transform="translate(-197.1,-131.3)"><g data-paper-data="{&quot;isPaintingLayer&quot;:true}" fill-rule="nonzero" stroke-miterlimit="10" stroke-dasharray="" stroke-dashoffset="0" style="mix-blend-mode: normal"><path d="M247.5,205c0,0 -1.7,5.5 -0.9,14.3c0.3,3.8 7.4,-0.5 6.9,6.9c-0.2,2.1 -9.4,1.9 -11.5,1.1c-1.9,-0.7 -2.4,-1.4 -2.1,-3.4c1.1,-7.3 -2.6,-15.7 -2.6,-15.7" fill="#faa51f" stroke="#000000" stroke-width="1.4" stroke-linecap="round" stroke-linejoin="round"/><path d="M245.8,221.1c1.5,-0.3 2.8,-0.1 2.8,-0.1" fill="#faa51f" stroke="#000000" stroke-width="1.4" stroke-linecap="round" stroke-linejoin="round"/><path d="M231.7,201.9c0.9,0.2 2.8,0.6 1.5,4.6c-1.3,4 -7.8,6.6 -8.6,6.9c-2.9,1 -6.6,2.1 -11.1,2c-13,-0.3 -16.9,-12.9 -13.8,-16.1c3.1,-3.2 7.2,4.2 13.9,7.3c3,1.4 6,1.4 8.5,1.1c3.5,-0.4 8.6,-6 9.6,-5.8z" fill="#faa51f" stroke="none" stroke-width="1" stroke-linecap="butt" stroke-linejoin="miter"/><path d="M205.6,200.9c2.3,1.9 6.6,5.1 6.6,5.1c0,0 -4.2,0.6 -5.7,2.9c-1.5,2.3 1.8,5.6 0,5c-1.6,-1 -4.1,-2.4 -6.1,-5.5c-2,-3.1 -2.2,-8.1 -0.5,-9.3c1.9,-1.1 3.5,0 5.7,1.8z" fill="#ffffff" stroke="none" stroke-width="1" stroke-linecap="butt" stroke-linejoin="miter"/><path d="M231.7,201.9c0.9,0.2 2.8,0.6 1.5,4.6c-1.3,4 -7.8,6.6 -8.6,6.9c-2.9,1 -6.6,2.1 -11.1,2c-13,-0.3 -16.9,-12.9 -13.8,-16.1c3.1,-3.2 7.2,4.2 13.9,7.3c3,1.4 6,1.4 8.5,1.1c3.5,-0.4 8.6,-6 9.6,-5.8z" fill="none" stroke="#000000" stroke-width="1.4" stroke-linecap="round" stroke-linejoin="round"/><path d="M248.3,194.1c0,6.7 1.7,16.5 -10.2,16.5c-11.9,0 -10.8,-9 -10.8,-15.7c0,-6.7 4.1,-8.5 10.8,-8.5c6.7,0 10.2,1 10.2,7.7z" fill="#faa51f" stroke="#000000" stroke-width="1.4" stroke-linecap="round" stroke-linejoin="round"/><path d="M241.9,139l7.2,-7l2.8,11.2c0,0 6.2,4.6 8.1,7.8c3.1,5.3 3.2,9.6 3.2,9.6c0,0 6.9,2.1 8.1,7.6c1.2,5.5 -3.1,16 -21.3,19.6c-18.2,3.6 -32.8,-1.3 -39.7,-12.4c-6.8,-11 4,-24.2 3.4,-23.4l-2.2,-18.3l12.6,8.2c0,0 4.3,-1.7 8.9,-1.9c1.7,-0.1 4.8,0.1 6.3,0.2z" fill="#faa51f" stroke="none" stroke-width="1" stroke-linecap="butt" stroke-linejoin="miter"/><path d="M262.8,161.1c0,0 6.6,1.6 7.8,7.1c1.5,5.5 -3.4,15.9 -20.6,19c-3.9,0.7 -7.4,1.4 -12.9,1.4c-8.5,0.1 -17.8,-5.2 -17.1,-16.3c0.4,-6.4 8.5,-5.9 8.5,-5.9l7.1,-1.8c0,0 7.1,1.6 11.3,0.7c4.2,-0.9 4.2,-4.2 4.2,-4.2l8.8,-2.6l2.4,2z" fill="#ffffff" stroke="none" stroke-width="1" stroke-linecap="butt" stroke-linejoin="miter"/><path d="M278.3,161.9c0,0 -1.8,1.6 -4.4,2.5c-2.2,0.8 -6.6,1.5 -6.6,1.5" fill="none" stroke="#000000" stroke-width="1.4" stroke-linecap="round" stroke-linejoin="round"/><path d="M277.7,173c0,0 -1.8,0.2 -4.5,-0.1c-2.8,-0.2 -5.4,-1.3 -5.4,-1.3" fill="none" stroke="#000000" stroke-width="1.4" stroke-linecap="round" stroke-linejoin="round"/><path d="M221.8,140.4l5.2,3.6" fill="none" stroke="#000000" stroke-width="1.4" stroke-linecap="round" stroke-linejoin="round"/><path d="M241.9,139l7.2,-7l2.8,11.2c0,0 6.2,4.6 8.1,7.8c3.1,5.3 3.2,9.6 3.2,9.6c0,0 6.9,2.1 8.1,7.6c1.2,5.5 -3.1,16 -21.3,19.6c-18.2,3.6 -32.8,-1.3 -39.7,-12.4c-6.8,-11 4,-24.2 3.4,-23.4l-2.2,-18.3l12.6,8.2c0,0 4.3,-1.7 8.9,-1.9c1.7,-0.1 4.8,0.1 6.3,0.2z" fill="none" stroke="#000000" stroke-width="1.4" stroke-linecap="round" stroke-linejoin="round"/><path d="M209.7,170.9c0,0 -3.5,0.5 -5.3,0.6c-1.8,0.1 -5.8,-0.3 -5.8,-0.3" fill="none" stroke="#000000" stroke-width="1.4" stroke-linecap="round" stroke-linejoin="round"/><path d="M197.8,161.6c0,0 2.2,0.4 6.2,2.2c3.6,1.6 5.9,3.3 5.9,3.3" fill="none" stroke="#000000" stroke-width="1.4" stroke-linecap="round" stroke-linejoin="round"/><path d="M260,158c-0.1,1.8 -0.7,3.3 -2,4.1c-2,1.3 -4.9,0.6 -7.4,-1.6" fill="#faa51f" stroke="#000000" stroke-width="2" stroke-linecap="round" stroke-linejoin="round"/><path d="M236.4,161.9c-0.3,1.6 -1.1,3 -2.5,3.9c-2.3,1.5 -5.6,1 -8.3,-1.1" fill="#faa51f" stroke="#000000" stroke-width="2" stroke-linecap="round" stroke-linejoin="round"/><path d="M245.6,164.1c1.7,-0.2 4,-1.5 4.3,0.4c0,0.8 -1.6,4.1 -3.4,4.2c-2,0.1 -5.5,-2.4 -5.4,-3.9c0.1,-1.5 3,-0.5 4.5,-0.7z" fill="#000000" stroke="#000000" stroke-width="1.4" stroke-linecap="round" stroke-linejoin="round"/><path d="M245.7,197c0,4.2 0.9,10.5 -5.5,10.5c-6.4,0 -5.9,-5.7 -5.9,-9.9c0,-4.2 2.2,-5.4 5.9,-5.4c3.7,0 5.5,0.6 5.5,4.8z" fill="#ffffff" stroke="none" stroke-width="1" stroke-linecap="butt" stroke-linejoin="miter"/><path d="M237.4,210.9c0,0 -1.5,9.1 -1.2,13.3c0.2,2.1 -0.6,3.2 -2.7,3.6c-2.2,0.4 -9.8,0.6 -9.9,-1.9c-0.4,-7.6 5.2,-2.9 5.8,-6.7c1.3,-8.7 -1.3,-14.2 -1.3,-14.2" fill="#faa51f" stroke="#000000" stroke-width="1.4" stroke-linecap="round" stroke-linejoin="round"/><path d="M227.1,221c0,0 1.6,-0.2 3,0.2" fill="#faa51f" stroke="#000000" stroke-width="1.4" stroke-linecap="round" stroke-linejoin="round"/><path d="M244.4,180.7c-5.4,1.1 -8,0.3 -8,0.3" fill="#ffffff" stroke="#000000" stroke-width="1.4" stroke-linecap="round" stroke-linejoin="round"/><path d="M230.9,200.5c0,0 -0.6,1.4 -4.3,0.8c-5.7,-1.6 -5.8,-4.7 -6.1,-7.8c0,-4.4 -1.2,-12 4.2,-10.6c4.3,0.6 4.5,5.4 4.3,9.7" fill="#faa51f" stroke="#000000" stroke-width="1.4" stroke-linecap="round" stroke-linejoin="round"/><path d="M247.3,190.9c-0.2,-4.3 0,-9.1 4.3,-9.7c5.4,-1.4 4.2,6.2 4.2,10.6c-0.3,3.1 -0.5,6.2 -6.1,7.8c-2.6,0.4 -2.4,0 -2.4,0" fill="#faa51f" stroke="#000000" stroke-width="1.4" stroke-linecap="round" stroke-linejoin="round"/><path d="M238.6,154.8c1.6,1.5 2.2,3 1.7,4.5" fill="none" stroke="#000000" stroke-width="1.4" stroke-linecap="round" stroke-linejoin="round"/><path d="M244.2,158.9c-1.3,-1 -1.7,-2.5 -1.2,-4.7" fill="none" stroke="#000000" stroke-width="1.4" stroke-linecap="round" stroke-linejoin="round"/></g></g></svg>