<svg version="1.1" xmlns="http://www.w3.org/2000/svg" xmlns:xlink="http://www.w3.org/1999/xlink" width="103.79022" height="95.72128" viewBox="0,0,103.79022,95.72128"><defs><linearGradient x1="230.72112" y1="162.26742" x2="230.72112" y2="186.36732" gradientUnits="userSpaceOnUse" id="color-1"><stop offset="0" stop-color="#ffffff"/><stop offset="1" stop-color="#ffffff" stop-opacity="0"/></linearGradient></defs><g transform="translate(-191.20978,-133.1)"><g data-paper-data="{&quot;isPaintingLayer&quot;:true}" fill-rule="nonzero" stroke-miterlimit="10" stroke-dasharray="" stroke-dashoffset="0" style="mix-blend-mode: normal"><path d="M262.8,202.5c0,0 -1.4,5.2 3.5,6.6c6.4,1.9 12.7,1 13.1,4.7c0.6,6.1 -8.5,6.2 -16.4,2.6c-8,-3.7 -7.9,-7 -7.9,-7c0,0 1.7,-7 7.7,-6.9z" fill="#faa51f" stroke="#000000" stroke-width="1.4" stroke-linecap="round" stroke-linejoin="round"/><path d="M219.2,186.1c0.1,0.9 0.4,2.8 -3.8,2.9c-4.2,0.1 -8.9,-5.2 -9.4,-5.8c-1.9,-2.5 -4.2,-5.6 -5.6,-9.9c-4,-12.3 6.7,-20.2 10.7,-18.3c4,1.9 -1.6,8.2 -2.3,15.6c-0.3,3.3 0.7,6.2 1.8,8.4c1.5,3.2 8.5,6.1 8.6,7.1z" fill="#faa51f" stroke="none" stroke-width="1" stroke-linecap="butt" stroke-linejoin="miter"/><path d="M211.6,161.2c-1,2.8 -2.6,7.9 -2.6,7.9c0,0 -1.8,-4.1 -4.6,-3c-2.8,1 -4.7,2.1 -4.8,0.2c0.4,-1.8 0.9,-4.7 3.2,-7.6c2.3,-2.9 6.9,-4.9 8.6,-3.6c1.7,1.5 1.2,3.3 0.2,6.1z" fill="#ffffff" stroke="none" stroke-width="1" stroke-linecap="butt" stroke-linejoin="miter"/><path d="M219.2,186.1c0.1,0.9 0.4,2.8 -3.8,2.9c-4.2,0.1 -8.9,-5.2 -9.4,-5.8c-1.9,-2.5 -4.2,-5.6 -5.6,-9.9c-4,-12.3 6.7,-20.2 10.7,-18.3c4,1.9 -1.6,8.2 -2.3,15.6c-0.3,3.3 0.7,6.2 1.8,8.4c1.5,3.2 8.5,6.1 8.6,7.1z" fill="none" stroke="#000000" stroke-width="1.4" stroke-linecap="round" stroke-linejoin="round"/><path d="M211.8,185.4c10.3,-10.4 14.8,-1.6 26.9,-0.1c8.8,1.1 16.5,4.7 22.2,9.9c9.1,8.3 -1.1,16.6 -9.3,18.5c-11.6,2.7 -22.8,1.2 -30.1,-3.1c-11.9,-7 -17.6,-17.2 -9.7,-25.2z" fill="#faa51f" stroke="none" stroke-width="1" stroke-linecap="butt" stroke-linejoin="miter"/><path d="M215.5,206.4c1.5,-0.8 3.5,-1.1 7.6,1.2c4.1,2.4 4.1,6 4.1,6c-6.7,-2.5 -11.6,-7.2 -11.7,-7.2z" fill="#ffffff" stroke="none" stroke-width="1" stroke-linecap="butt" stroke-linejoin="miter"/><path d="M211.8,185.4c10.3,-10.4 14.8,-1.6 26.9,-0.1c8.8,1.1 16.5,4.7 22.2,9.9c9.1,8.3 -1.1,16.6 -9.3,18.5c-11.6,2.7 -22.8,1.2 -30.1,-3.1c-11.9,-7 -17.6,-17.2 -9.7,-25.2z" fill="none" stroke="#000000" stroke-width="1.4" stroke-linecap="round" stroke-linejoin="round"/><path d="M239.3,206.4c0,0 -0.4,4 4.2,7.6c6.1,4.7 13.2,6.3 12,10.5c-1.9,6.8 -11.6,3.2 -18.6,-4c-7,-7.2 -6.4,-10.5 -6.4,-10.5" fill="#faa51f" stroke="#000000" stroke-width="1.4" stroke-linecap="round" stroke-linejoin="round"/><path d="M211.6,200.8c0,0 -2.1,0.2 -9,-2.6c-7.2,-2.9 -13.6,-9 -9.3,-12c3.4,-2.5 5.7,-0.8 11.2,3c3.6,2.4 4.1,1.8 4.1,1.8" fill="#faa51f" stroke="#000000" stroke-width="1.4" stroke-linecap="round" stroke-linejoin="round"/><path d="M255.3,220" fill="#faa51f" stroke="#8e5322" stroke-width="1.4" stroke-linecap="round" stroke-linejoin="round"/><path d="M257.9,157.2l7.2,-7l2.8,11.2c0,0 6.2,4.6 8.1,7.8c3.1,5.3 3.2,9.6 3.2,9.6c0,0 6.9,2.1 8.1,7.6c1.2,5.5 -3.1,16 -21.3,19.6c-18.2,3.6 -32.8,-1.3 -39.7,-12.4c-6.8,-11 4,-24.2 3.4,-23.4l-2.2,-18.3l12.6,8.2c0,0 4.3,-1.7 8.9,-1.9c1.7,-0.1 4.8,0.1 6.3,0.2z" fill="#faa51f" stroke="none" stroke-width="1" stroke-linecap="butt" stroke-linejoin="miter"/><path d="M278.8,179.2c0,0 6.6,1.6 7.8,7.1c1.5,5.5 -3.4,15.9 -20.6,19c-3.9,0.7 -7.4,1.4 -12.9,1.4c-8.5,0.1 -17.8,-5.2 -17.1,-16.3c0.4,-6.4 8.5,-5.9 8.5,-5.9l7.1,-1.8c0,0 7.1,1.6 11.3,0.7c4.2,-0.9 4.2,-4.2 4.2,-4.2l8.8,-2.6l2.4,2z" fill="#ffffff" stroke="none" stroke-width="1" stroke-linecap="butt" stroke-linejoin="miter"/><path d="M294.3,180c0,0 -1.8,1.6 -4.4,2.5c-2.2,0.8 -6.6,1.5 -6.6,1.5" fill="none" stroke="#000000" stroke-width="1.4" stroke-linecap="round" stroke-linejoin="round"/><path d="M293.7,191.2c0,0 -1.8,0.2 -4.5,-0.1c-2.8,-0.2 -5.4,-1.3 -5.4,-1.3" fill="none" stroke="#000000" stroke-width="1.4" stroke-linecap="round" stroke-linejoin="round"/><path d="M237.8,158.5l5.2,3.6" fill="none" stroke="#000000" stroke-width="1.4" stroke-linecap="round" stroke-linejoin="round"/><path d="M257.9,157.2l7.2,-7l2.8,11.2c0,0 6.2,4.6 8.1,7.8c3.1,5.3 3.2,9.6 3.2,9.6c0,0 6.9,2.1 8.1,7.6c1.2,5.5 -3.1,16 -21.3,19.6c-18.2,3.6 -32.8,-1.3 -39.7,-12.4c-6.8,-11 4,-24.2 3.4,-23.4l-2.2,-18.3l12.6,8.2c0,0 4.3,-1.7 8.9,-1.9c1.7,-0.1 4.8,0.1 6.3,0.2z" fill="none" stroke="#000000" stroke-width="1.4" stroke-linecap="round" stroke-linejoin="round"/><path d="M225.7,189c0,0 -3.5,0.5 -5.3,0.6c-1.8,0.1 -5.8,-0.3 -5.8,-0.3" fill="none" stroke="#000000" stroke-width="1.4" stroke-linecap="round" stroke-linejoin="round"/><path d="M213.8,179.7c0,0 2.2,0.4 6.2,2.2c3.6,1.6 5.9,3.3 5.9,3.3" fill="none" stroke="#000000" stroke-width="1.4" stroke-linecap="round" stroke-linejoin="round"/><path d="M273.8,169.2c2.8,4.3 2.9,9.3 0.2,11c-2.7,1.8 -7.2,-0.3 -10,-4.7c-2.8,-4.3 -2.9,-9.3 -0.2,-11c2.7,-1.7 7.2,0.4 10,4.7z" fill="#ffffff" stroke="#000000" stroke-width="1.4" stroke-linecap="round" stroke-linejoin="round"/><path d="M273.7,172.8c0.3,1 -0.2,2 -1.2,2.3c-0.9,0.3 -1.9,-0.3 -2.2,-1.4c-0.3,-1 0.2,-2 1.2,-2.3c1,-0.2 1.9,0.4 2.2,1.4" fill="#000000" stroke="none" stroke-width="1" stroke-linecap="butt" stroke-linejoin="miter"/><path d="M250.6,172.4c2.8,4.3 2.5,9.5 -0.7,11.6c-3.2,2.1 -8.1,0.3 -10.9,-4.1c-2.8,-4.3 -2.5,-9.5 0.7,-11.6c3.2,-2.1 8.1,-0.3 10.9,4.1z" fill="#ffffff" stroke="#000000" stroke-width="1.4" stroke-linecap="round" stroke-linejoin="round"/><path d="M250.3,176.2c0,1 -0.8,1.9 -1.7,1.9c-1,0 -1.7,-0.8 -1.7,-1.9c0,-1 0.8,-1.9 1.7,-1.9c0.9,0 1.7,0.8 1.7,1.9" fill="#000000" stroke="none" stroke-width="1" stroke-linecap="butt" stroke-linejoin="miter"/><path d="M260.6,182.3c1.7,-0.2 4,-1.5 4.3,0.4c0,0.8 -1.6,4.1 -3.4,4.2c-2,0.1 -5.5,-2.4 -5.4,-3.9c0.1,-1.5 3,-0.5 4.5,-0.7z" fill="#000000" stroke="#000000" stroke-width="1.4" stroke-linecap="round" stroke-linejoin="round"/><g stroke-width="1.4"><g stroke="#2495b7" stroke-linecap="butt" stroke-linejoin="miter"><path d="M274.47112,184.47112c-5.8,-0.3 -9.9,-6.9 -15.5,-5.8c-5.6,1.1 -4.4,7.5 -13.5,10.5c-11.2,3.7 -12.5,-7.6 -21.1,-9.1c-2.9,-0.5 -2.3,-9 -0.3,-9.5c10.3,-2.6 12.9,-7.4 29.1,-10.3c9.1,-1.7 18.7,0.6 22.7,4.4c2.2,2.1 3.4,4.5 4,7.5c1,4.3 2.8,12.7 -5.4,12.3zM273.97112,165.97112c-4.9,-4.8 -20.1,-4.9 -30.7,-0.5c-10.6,4.4 -14.9,7.8 -11.3,13.2c0,0 5.2,8.7 10.9,7.6c8.9,-1.6 10.4,-11.1 14.8,-11.9c4.4,-0.7 13.9,7.4 18,6.9c4.1,-0.5 3.2,-10.6 -1.7,-15.3z" fill="#42ace1"/><path d="M275.67112,181.27112c-4.1,0.5 -13.6,-7.6 -18,-6.9c-4.4,0.8 -5.9,10.3 -14.8,11.9c-5.7,1.1 -10.9,-7.6 -10.9,-7.6c-3.6,-5.4 0.7,-8.8 11.3,-13.2c10.6,-4.4 25.8,-4.3 30.7,0.5c4.9,4.7 5.8,14.8 1.7,15.3z" fill="url(#color-1)" opacity="0.7"/></g><g><path d="M261.57112,196.17112c0.1,3.7 -1.3,5.8 -7.6,5.7c-5.4,-0.1 -5.5,-3.2 -5.9,-4.9c-1.3,-6.2 3.9,-4.9 7.3,-5.2c3.4,-0.4 6.1,0 6.2,4.4z" fill="#e6e7e8" stroke="#bcbec0" stroke-linecap="round" stroke-linejoin="round"/><g stroke="#2495b7"><g fill="#42ace1" stroke-linecap="butt" stroke-linejoin="miter"><path d="M253.67112,199.47112h-0.1l-12,-0.6c-5.1,-0.3 -9.5,-3.7 -11,-8.6l-11.3,-36.6c-0.4,-1.3 0.3,-2.7 1.7,-3.1c1.3,-0.4 2.7,0.3 3.1,1.7l11.3,36.5c0.9,2.9 3.5,4.9 6.5,5.1l12,0.6c1.4,0.1 2.4,1.2 2.4,2.6c-0.2,1.3 -1.3,2.4 -2.6,2.4z"/></g><path d="M247.37112,193.17112l-0.6,6.7" fill="none" stroke-linecap="round" stroke-linejoin="round"/><path d="M243.47112,199.67112l0.6,-6.5" fill="none" stroke-linecap="round" stroke-linejoin="round"/><path d="M240.47112,199.47112l0.6,-6.5" fill="none" stroke-linecap="round" stroke-linejoin="round"/></g></g></g><path d="M223,133.8c1.076,0 2.051,0.437 2.757,1.143c0.706,0.706 1.143,1.681 1.143,2.757c0,1.076 -0.437,2.051 -1.143,2.757c-0.706,0.706 -1.681,1.143 -2.757,1.143c-1.076,0 -2.051,-0.437 -2.757,-1.143c-0.706,-0.706 -1.143,-1.681 -1.143,-2.757c0,-1.076 0.437,-2.051 1.143,-2.757c0.706,-0.706 1.681,-1.143 2.757,-1.143z" fill="#ffffff" stroke="#e6e7e8" stroke-width="1.4" stroke-linecap="round" stroke-linejoin="round"/><path d="M216.7,144.2c0.524,0 0.999,0.213 1.343,0.557c0.344,0.344 0.557,0.819 0.557,1.343c0,0.524 -0.213,0.999 -0.557,1.343c-0.344,0.344 -0.819,0.557 -1.343,0.557c-0.524,0 -0.999,-0.213 -1.343,-0.557c-0.344,-0.344 -0.557,-0.819 -0.557,-1.343c0,-0.524 0.213,-0.999 0.557,-1.343c0.344,-0.344 0.819,-0.557 1.343,-0.557z" fill="#ffffff" stroke="#e6e7e8" stroke-width="1.4" stroke-linecap="round" stroke-linejoin="round"/></g></g></svg>