<svg version="1.1" xmlns="http://www.w3.org/2000/svg" xmlns:xlink="http://www.w3.org/1999/xlink" width="125.79914" height="96.66454" viewBox="0,0,125.79914,96.66454"><g transform="translate(-196.60086,-131.8)"><g data-paper-data="{&quot;isPaintingLayer&quot;:true}" fill-rule="nonzero" stroke-miterlimit="10" stroke-dasharray="" stroke-dashoffset="0" style="mix-blend-mode: normal"><path d="M262.2,190.9v0c-0.4,-0.5 -0.4,-1.2 0.1,-1.6l33.8,-31.6c0.5,-0.4 1.2,-0.4 1.6,0.1v0c0.4,0.5 0.4,1.2 -0.1,1.6l-33.8,31.6c-0.5,0.4 -1.2,0.4 -1.6,-0.1z" fill="#939598" stroke="#6d6e71" stroke-width="1.4" stroke-linecap="round" stroke-linejoin="round"/><path d="M245.1,188.3c0,0 3.7,2 8,1.3c5.7,-1 10.2,-4.3 12,-1.2c2.8,5 -4.2,8.8 -11.7,8.8c-7.6,0.1 -8.8,-2.8 -8.8,-2.8c0,0 -4.2,-3.7 0.5,-6.1z" fill="#faa51f" stroke="#000000" stroke-width="1.4" stroke-linecap="round" stroke-linejoin="round"/><path d="M247.4,204.9c0,0 -1.7,5.5 -0.9,14.3c0.3,3.8 7.4,-0.5 6.9,6.9c-0.2,2.1 -9.4,1.9 -11.5,1.1c-1.9,-0.7 -2.4,-1.4 -2.1,-3.4c1.1,-7.3 -2.6,-15.7 -2.6,-15.7" fill="#faa51f" stroke="#000000" stroke-width="1.4" stroke-linecap="round" stroke-linejoin="round"/><path d="M245.7,221.1c1.5,-0.3 2.8,-0.1 2.8,-0.1" fill="#faa51f" stroke="#000000" stroke-width="1.4" stroke-linecap="round" stroke-linejoin="round"/><path d="M231.6,201.9c0.9,0.2 2.8,0.6 1.5,4.6c-1.3,4 -7.8,6.6 -8.6,6.9c-2.9,1 -6.6,2.1 -11.1,2c-13,-0.3 -16.9,-12.9 -13.8,-16.1c3.1,-3.2 7.2,4.2 13.9,7.3c3,1.4 6,1.4 8.5,1.1c3.5,-0.4 8.6,-6 9.6,-5.8z" fill="#faa51f" stroke="none" stroke-width="1" stroke-linecap="butt" stroke-linejoin="miter"/><path d="M205.5,200.8c2.3,1.9 6.6,5.1 6.6,5.1c0,0 -4.2,0.6 -5.7,2.9c-1.5,2.3 1.8,5.6 0,5c-1.6,-1 -4.1,-2.4 -6.1,-5.5c-2,-3.1 -2.2,-8.1 -0.5,-9.3c1.9,-1.1 3.5,0 5.7,1.8z" fill="#ffffff" stroke="none" stroke-width="1" stroke-linecap="butt" stroke-linejoin="miter"/><path d="M231.6,201.9c0.9,0.2 2.8,0.6 1.5,4.6c-1.3,4 -7.8,6.6 -8.6,6.9c-2.9,1 -6.6,2.1 -11.1,2c-13,-0.3 -16.9,-12.9 -13.8,-16.1c3.1,-3.2 7.2,4.2 13.9,7.3c3,1.4 6,1.4 8.5,1.1c3.5,-0.4 8.6,-6 9.6,-5.8z" fill="none" stroke="#000000" stroke-width="1.4" stroke-linecap="round" stroke-linejoin="round"/><path d="M238.2,202.8" fill="#faa51f" stroke="#8e5322" stroke-width="1.4" stroke-linecap="round" stroke-linejoin="round"/><path d="M248.2,194c0,6.7 1.7,16.5 -10.2,16.5c-11.9,0 -10.8,-9 -10.8,-15.7c0,-6.7 4.1,-8.5 10.8,-8.5c6.8,0.1 10.2,1 10.2,7.7z" fill="#faa51f" stroke="#000000" stroke-width="1.4" stroke-linecap="round" stroke-linejoin="round"/><path d="M229.2,196.1c0,0 -1.4,2.4 -8.2,3.3c-7.6,0.9 -15.1,-4.2 -11.7,-8.8c2.8,-3.9 7.9,0.9 10.9,1.2c5.9,0.7 10.5,-4.1 10.5,-4.1" fill="#faa51f" stroke="#000000" stroke-width="1.4" stroke-linecap="round" stroke-linejoin="round"/><path d="M245.6,197c0,4.2 0.9,10.5 -5.5,10.5c-6.4,0 -5.9,-5.7 -5.9,-9.9c0,-4.2 2.2,-5.4 5.9,-5.4c3.7,0 5.5,0.5 5.5,4.8z" fill="#ffffff" stroke="none" stroke-width="1" stroke-linecap="butt" stroke-linejoin="miter"/><path d="M237.3,210.8c0,0 -1.5,9.1 -1.2,13.3c0.2,2.1 -0.6,3.2 -2.7,3.6c-2.2,0.4 -9.8,0.6 -9.9,-1.9c-0.4,-7.6 5.2,-2.9 5.8,-6.7c1.3,-8.7 -1.3,-14.2 -1.3,-14.2" fill="#faa51f" stroke="#000000" stroke-width="1.4" stroke-linecap="round" stroke-linejoin="round"/><path d="M226.9,220.9c0,0 1.6,-0.2 3,0.2" fill="#faa51f" stroke="#000000" stroke-width="1.4" stroke-linecap="round" stroke-linejoin="round"/><path d="M237.3,140.4l6.1,-7.9l4.3,10.7c0,0 6.8,3.6 9.1,6.5c3.9,4.8 4.6,9.1 4.6,9.1c0,0 7.1,1 9.1,6.3c2,5.3 -0.8,16.2 -18.2,22.4c-17.4,6.1 -32.6,3.4 -41,-6.6c-8.3,-10 0.5,-24.5 0,-23.7l-4.8,-17.8l13.6,6.3c0,0 4.1,-2.2 8.6,-3.1c1.7,-0.3 4.8,-0.6 6.3,-0.7z" fill="#faa51f" stroke="none" stroke-width="1" stroke-linecap="butt" stroke-linejoin="miter"/><path d="M261.1,159.1c0,0 6.8,0.6 8.8,5.9c2.2,5.3 -1.1,16.2 -17.7,21.8c-3.8,1.4 -7.2,2.5 -12.6,3.3c-8.4,1.3 -18.3,-2.6 -19.2,-13.7c-0.5,-6.3 7.5,-7 7.5,-7l6.7,-2.8c0,0 7.2,0.6 11.3,-0.9c4.1,-1.5 3.6,-4.8 3.6,-4.8l8.4,-3.8l2.7,1.6z" fill="#ffffff" stroke="none" stroke-width="1" stroke-linecap="butt" stroke-linejoin="miter"/><path d="M277.20086,157.8c0,0 -1.5,1.8 -4,3.1c-2.1,1.1 -6.4,2.4 -6.4,2.4" fill="none" stroke="#000000" stroke-width="1.4" stroke-linecap="round" stroke-linejoin="round"/><path d="M277.6,169.1c0,0 -1.8,0.4 -4.5,0.5c-2.7,0.1 -5.5,-0.6 -5.5,-0.6" fill="none" stroke="#000000" stroke-width="1.4" stroke-linecap="round" stroke-linejoin="round"/><path d="M223.3,147.4l-5.6,-2.8" fill="none" stroke="#000000" stroke-width="1.4" stroke-linecap="round" stroke-linejoin="round"/><path d="M237.3,140.4l6.1,-7.9l4.3,10.7c0,0 6.8,3.6 9.1,6.5c3.9,4.8 4.6,9.1 4.6,9.1c0,0 7.1,1 9.1,6.3c2,5.3 -0.8,16.2 -18.2,22.4c-17.4,6.1 -32.6,3.4 -41,-6.6c-8.3,-10 0.5,-24.5 0,-23.7l-4.8,-17.8l13.6,6.3c0,0 4.1,-2.2 8.6,-3.1c1.7,-0.3 4.8,-0.6 6.3,-0.7z" fill="none" stroke="#000000" stroke-width="1.4" stroke-linecap="round" stroke-linejoin="round"/><path d="M210.60086,176.5c0,0 -3.4,0.9 -5.2,1.3c-1.8,0.4 -5.8,0.6 -5.8,0.6" fill="none" stroke="#000000" stroke-width="1.4" stroke-linecap="round" stroke-linejoin="round"/><path d="M197.30086,169c0,0 2.3,0.1 6.5,1.3c3.8,1 6.3,2.4 6.3,2.4" fill="none" stroke="#000000" stroke-width="1.4" stroke-linecap="round" stroke-linejoin="round"/><path d="M255.30086,150c3.4,3.9 4.2,8.8 1.8,10.9c-2.4,2.1 -7.2,0.7 -10.6,-3.2c-3.4,-3.9 -4.2,-8.8 -1.8,-10.9c2.4,-2.1 7.1,-0.7 10.6,3.2z" fill="#ffffff" stroke="#000000" stroke-width="1.4" stroke-linecap="round" stroke-linejoin="round"/><path d="M255.3,153.6c0.4,1 0.1,2 -0.8,2.4c-0.9,0.4 -1.9,-0.1 -2.4,-1c-0.4,-1 -0.1,-2.1 0.8,-2.4c0.9,-0.4 1.9,0 2.4,1" fill="#000000" stroke="none" stroke-width="1" stroke-linecap="butt" stroke-linejoin="miter"/><path d="M232.70086,156.5c3.4,3.9 3.9,9.1 1,11.6c-2.9,2.5 -8,1.4 -11.4,-2.5c-3.4,-3.9 -3.9,-9.1 -1,-11.6c2.9,-2.5 8,-1.4 11.4,2.5z" fill="#ffffff" stroke="#000000" stroke-width="1.4" stroke-linecap="round" stroke-linejoin="round"/><path d="M232.6,160.3c0.1,1 -0.5,2 -1.5,2.1c-1,0.1 -1.8,-0.6 -2,-1.6c-0.1,-1 0.5,-2 1.5,-2.1c0.9,-0.2 1.8,0.6 2,1.6" fill="#000000" stroke="none" stroke-width="1" stroke-linecap="butt" stroke-linejoin="miter"/><path d="M244.6,164.7c1.6,-0.4 3.8,-2 4.4,-0.2c0.2,0.8 -1,4.3 -2.8,4.7c-1.9,0.4 -5.8,-1.6 -5.9,-3.1c-0.1,-1.6 2.9,-1 4.3,-1.4z" fill="#000000" stroke="#000000" stroke-width="1.4" stroke-linecap="round" stroke-linejoin="round"/><path d="M232.90086,183.7c-4.2,-2.1 -1.6,-6.8 -1.6,-6.8c0,0 3.3,3.1 8.6,3.6c0,0 -1.5,5.9 -7,3.2z" fill="#ffffff" stroke="#000000" stroke-width="1.4" stroke-linecap="round" stroke-linejoin="round"/><g stroke="#6d6e71" stroke-width="1.4" stroke-linecap="round" stroke-linejoin="round"><path d="M310.2,160.7h-25.2c-1.1,0 -2,-0.9 -2,-2v-11.6c0,-1.1 0.9,-2 2,-2h25.2c1.1,0 2,0.9 2,2v11.6c0,1.1 -0.9,2 -2,2z" fill="#939598"/><path d="M287.9,145.1h19.3v15.6h-19.3z" fill="#ffffff"/><path d="M285.4,155.7v-5.5" fill="none"/><path d="M309.6,153.2v-0.6" fill="none"/></g><path d="M313.1,142.1l3.3,1.8l-3.3,1.9l-1.9,3.3l-1.8,-3.3l-3.4,-1.9l3.4,-1.8l1.8,-3.4l1.9,3.4" fill="#fff200" stroke="#ffde17" stroke-width="1.4" stroke-linecap="round" stroke-linejoin="round"/><path d="M320,138.2l1.7,0.9l-1.7,0.9l-0.9,1.7l-1,-1.7l-1.7,-0.9l1.7,-0.9l1,-1.7l0.9,1.7" fill="#fff200" stroke="#ffde17" stroke-width="1.4" stroke-linecap="round" stroke-linejoin="round"/></g></g></svg>