<svg version="1.1" xmlns="http://www.w3.org/2000/svg" xmlns:xlink="http://www.w3.org/1999/xlink" width="81.9" height="119.16454" viewBox="0,0,81.9,119.16454"><g transform="translate(-196.1,-109.15)"><g data-paper-data="{&quot;isPaintingLayer&quot;:true}" fill-rule="nonzero" stroke-miterlimit="10" stroke-dasharray="" stroke-dashoffset="0" style="mix-blend-mode: normal"><path d="M245.5,188.35c0,0 4.8,2.7 7.8,2.3c3,-0.4 10.5,-3.3 12,0.3c2.3,5.3 -5.2,8.2 -12.8,7.3c-7.6,-0.9 -8.4,-3.9 -8.4,-3.9c0,0 -3.6,-4.3 1.4,-6z" fill="#faa51f" stroke="#000000" stroke-width="1.4" stroke-linecap="round" stroke-linejoin="round"/><g stroke-width="1.4" stroke-linecap="round" stroke-linejoin="round"><path d="M263.6,115.65v42.1c-4.6,-3.9 -10.6,-5.8 -16.6,-5.8c-6,0 -12,1.9 -16.6,5.8c-4.6,3.9 -10.6,5.8 -16.6,5.8c-5.6,0 -11.2,-1.7 -15.7,-5.1c-0.6,-0.4 -0.9,-1.1 -0.9,-1.8v-36.5c0,-1.8 1.9,-2.9 3.4,-2c9.1,5.2 21.6,4.4 29.7,-2.4c4.8,-3.9 10.8,-5.9 16.8,-5.9c6,0 12,2 16.5,5.8z" fill="#2db674" stroke="#249960"/><path d="M264.4,226.45v0c-1.1,0 -1.9,-0.9 -1.9,-1.9v-112.3c0,-1.1 0.9,-1.9 1.9,-1.9v0c1.1,0 1.9,0.9 1.9,1.9v112.3c0,1.1 -0.8,1.9 -1.9,1.9z" fill="#c49a6c" stroke="#8e5322"/></g><g fill="#faa51f" stroke="#000000" stroke-width="1.4" stroke-linecap="round" stroke-linejoin="round"><path d="M247.5,204.75c0,0 -1.7,5.5 -0.9,14.3c0.3,3.8 7.4,-0.5 6.9,6.9c-0.2,2.1 -9.4,1.9 -11.5,1.1c-1.9,-0.7 -2.4,-1.4 -2.1,-3.4c1.1,-7.3 -2.6,-15.7 -2.6,-15.7"/><path d="M245.8,220.95c1.5,-0.3 2.8,-0.1 2.8,-0.1"/></g><path d="M231.7,201.75c0.9,0.2 2.8,0.6 1.5,4.6c-1.3,4 -7.8,6.6 -8.6,6.9c-2.9,1 -6.6,2.1 -11.1,2c-13,-0.3 -16.9,-12.9 -13.8,-16.1c3.1,-3.2 7.2,4.2 13.9,7.3c3,1.4 6,1.4 8.5,1.1c3.5,-0.4 8.6,-6 9.6,-5.8z" fill="#faa51f" stroke="none" stroke-width="1" stroke-linecap="butt" stroke-linejoin="miter"/><path d="M205.6,200.65c2.3,1.9 6.6,5.1 6.6,5.1c0,0 -4.2,0.6 -5.7,2.9c-1.5,2.3 1.8,5.6 0,5c-1.6,-1 -4.1,-2.4 -6.1,-5.5c-2,-3.1 -2.2,-8.1 -0.5,-9.3c1.9,-1.1 3.5,0 5.7,1.8z" fill="#ffffff" stroke="none" stroke-width="1" stroke-linecap="butt" stroke-linejoin="miter"/><path d="M231.7,201.75c0.9,0.2 2.8,0.6 1.5,4.6c-1.3,4 -7.8,6.6 -8.6,6.9c-2.9,1 -6.6,2.1 -11.1,2c-13,-0.3 -16.9,-12.9 -13.8,-16.1c3.1,-3.2 7.2,4.2 13.9,7.3c3,1.4 6,1.4 8.5,1.1c3.5,-0.4 8.6,-6 9.6,-5.8z" fill="none" stroke="#000000" stroke-width="1.4" stroke-linecap="round" stroke-linejoin="round"/><path d="M238.3,202.75" fill="#faa51f" stroke="#8e5322" stroke-width="1.4" stroke-linecap="round" stroke-linejoin="round"/><path d="M248.3,193.85c0,6.7 1.7,16.5 -10.2,16.5c-11.9,0 -10.8,-9 -10.8,-15.7c0,-6.7 4.1,-8.5 10.8,-8.5c6.8,0.1 10.2,1.1 10.2,7.7z" fill="#faa51f" stroke="#000000" stroke-width="1.4" stroke-linecap="round" stroke-linejoin="round"/><path d="M245.7,196.85c0,4.2 0.9,10.5 -5.5,10.5c-6.5,0 -5.9,-5.7 -5.9,-9.9c0,-4.2 2.2,-5.4 5.9,-5.4c3.7,-0.1 5.5,0.6 5.5,4.8z" fill="#ffffff" stroke="none" stroke-width="1" stroke-linecap="butt" stroke-linejoin="miter"/><g fill="#faa51f" stroke="#000000" stroke-width="1.4" stroke-linecap="round" stroke-linejoin="round"><path d="M237.4,210.65c0,0 -1.5,9.1 -1.2,13.3c0.2,2.1 -0.6,3.2 -2.7,3.6c-2.2,0.4 -9.8,0.6 -9.9,-1.9c-0.4,-7.6 5.2,-2.9 5.8,-6.7c1.3,-8.7 -1.3,-14.2 -1.3,-14.2"/><path d="M227.1,220.85c0,0 1.6,-0.2 3,0.2"/></g><g stroke="#000000" stroke-width="1.4" stroke-linecap="round" stroke-linejoin="round"><path d="M224.9,197.85c5.6,1.4 5,3.4 4.9,5c-0.2,4 -3.7,4.4 -11,1.4c-5.4,-2.2 -4.2,-12.4 6.4,-18.4l7.9,1.4" fill="#faa51f"/><path d="M228,196.05" fill="none"/><path d="M224.9,197.85l2.6,-4.1" fill="#faa51f"/><path d="M224.9,197.85l-1.3,-0.4" fill="none"/></g><path d="M240.9,139.85l7.2,-7l2.8,11.2c0,0 6.2,4.6 8.1,7.8c3.1,5.3 3.2,9.6 3.2,9.6c0,0 6.9,2.1 8.1,7.6c1.2,5.5 -3.1,16 -21.3,19.6c-18.2,3.6 -32.8,-1.3 -39.7,-12.4c-6.8,-11 4,-24.2 3.4,-23.4l-2.2,-18.3l12.6,8.2c0,0 4.3,-1.7 8.9,-1.9c1.7,-0.1 4.8,0.1 6.3,0.2z" fill="#faa51f" stroke="none" stroke-width="1" stroke-linecap="butt" stroke-linejoin="miter"/><path d="M261.8,161.85c0,0 6.6,1.6 7.8,7.1c1.5,5.5 -3.4,15.9 -20.6,19c-3.9,0.7 -7.4,1.4 -12.9,1.4c-8.5,0.1 -17.8,-5.2 -17.1,-16.3c0.4,-6.4 8.5,-5.9 8.5,-5.9l7.1,-1.8c0,0 7.1,1.6 11.3,0.7c4.2,-0.9 4.2,-4.2 4.2,-4.2l8.8,-2.6l2.4,2z" fill="#ffffff" stroke="none" stroke-width="1" stroke-linecap="butt" stroke-linejoin="miter"/><path d="M277.3,162.65c0,0 -1.8,1.6 -4.4,2.5c-2.2,0.8 -6.6,1.5 -6.6,1.5" fill="none" stroke="#000000" stroke-width="1.4" stroke-linecap="round" stroke-linejoin="round"/><path d="M276.7,173.85c0,0 -1.8,0.2 -4.5,-0.1c-2.8,-0.2 -5.4,-1.3 -5.4,-1.3" fill="none" stroke="#000000" stroke-width="1.4" stroke-linecap="round" stroke-linejoin="round"/><path d="M220.8,141.15l5.2,3.6" fill="none" stroke="#000000" stroke-width="1.4" stroke-linecap="round" stroke-linejoin="round"/><path d="M240.9,139.85l7.2,-7l2.8,11.2c0,0 6.2,4.6 8.1,7.8c3.1,5.3 3.2,9.6 3.2,9.6c0,0 6.9,2.1 8.1,7.6c1.2,5.5 -3.1,16 -21.3,19.6c-18.2,3.6 -32.8,-1.3 -39.7,-12.4c-6.8,-11 4,-24.2 3.4,-23.4l-2.2,-18.3l12.6,8.2c0,0 4.3,-1.7 8.9,-1.9c1.7,-0.1 4.8,0.1 6.3,0.2z" fill="none" stroke="#000000" stroke-width="1.4" stroke-linecap="round" stroke-linejoin="round"/><path d="M208.7,171.75c0,0 -3.5,0.5 -5.3,0.6c-1.8,0.1 -5.8,-0.3 -5.8,-0.3" fill="none" stroke="#000000" stroke-width="1.4" stroke-linecap="round" stroke-linejoin="round"/><path d="M196.8,162.35c0,0 2.2,0.4 6.2,2.2c3.6,1.6 5.9,3.3 5.9,3.3" fill="none" stroke="#000000" stroke-width="1.4" stroke-linecap="round" stroke-linejoin="round"/><path d="M256.8,151.85c2.8,4.3 2.9,9.3 0.2,11c-2.7,1.8 -7.2,-0.3 -10,-4.7c-2.8,-4.3 -2.9,-9.3 -0.2,-11c2.7,-1.7 7.2,0.4 10,4.7z" fill="#ffffff" stroke="#000000" stroke-width="1.4" stroke-linecap="round" stroke-linejoin="round"/><path d="M256.7,155.45c0.3,1 -0.2,2 -1.2,2.3c-0.9,0.3 -1.9,-0.3 -2.2,-1.4c-0.3,-1 0.2,-2 1.2,-2.3c1,-0.2 2,0.4 2.2,1.4" fill="#000000" stroke="none" stroke-width="1" stroke-linecap="butt" stroke-linejoin="miter"/><path d="M233.6,155.05c2.8,4.3 2.5,9.5 -0.7,11.6c-3.2,2.1 -8.1,0.3 -10.9,-4.1c-2.8,-4.3 -2.5,-9.5 0.7,-11.6c3.2,-2.1 8.1,-0.3 10.9,4.1z" fill="#ffffff" stroke="#000000" stroke-width="1.4" stroke-linecap="round" stroke-linejoin="round"/><path d="M233.3,158.85c0,1 -0.8,1.9 -1.7,1.9c-1,0 -1.7,-0.8 -1.7,-1.9c0,-1 0.8,-1.9 1.7,-1.9c0.9,0 1.7,0.9 1.7,1.9" fill="#000000" stroke="none" stroke-width="1" stroke-linecap="butt" stroke-linejoin="miter"/><path d="M244.6,164.95c1.7,-0.2 4,-1.5 4.3,0.4c0,0.8 -1.6,4.1 -3.4,4.2c-2,0.1 -5.5,-2.4 -5.4,-3.9c0.1,-1.5 3,-0.5 4.5,-0.7z" fill="#000000" stroke="#000000" stroke-width="1.4" stroke-linecap="round" stroke-linejoin="round"/><path d="M243.4,181.55c-5.4,1.1 -7.9,-1.2 -7.9,-1.2" fill="#ffffff" stroke="#000000" stroke-width="1.4" stroke-linecap="round" stroke-linejoin="round"/></g></g></svg>