<svg version="1.1" xmlns="http://www.w3.org/2000/svg" xmlns:xlink="http://www.w3.org/1999/xlink" width="100.65651" height="110.46163" viewBox="0,0,100.65651,110.46163"><g transform="translate(-194.2,-131.5)"><g data-paper-data="{&quot;isPaintingLayer&quot;:true}" fill-rule="nonzero" stroke-miterlimit="10" stroke-dasharray="" stroke-dashoffset="0" style="mix-blend-mode: normal"><path d="M217.4,227.2c-3.6,3 -6.6,4.3 -8.9,4.8c-1.7,0.3 -2.9,-1.3 -2.1,-2.9c1.5,-2.7 1.2,-6.8 1.2,-6.8z" fill="#e0dcba" stroke="#9f9c86" stroke-width="1.4" stroke-linecap="round" stroke-linejoin="round"/><path d="M252.1,215.7c26.2,5.5 44.9,14.8 41.7,20.8c-3.2,6 -27.1,6.4 -53.3,0.8c-26.2,-5.6 -44.9,-14.8 -41.7,-20.8c3.2,-5.9 27,-6.3 53.3,-0.8z" fill="#e0dcba" stroke="none" stroke-width="1" stroke-linecap="butt" stroke-linejoin="miter"/><path d="M251.5,239.4l25.8,-16.2l6.3,2.6l-22.5,14.6l-9.6,-1" fill="#e95c84" stroke="#c04c70" stroke-width="1.4" stroke-linecap="round" stroke-linejoin="round"/><path d="M252.1,215.7c26.2,5.5 44.9,14.8 41.7,20.8c-3.2,6 -27.1,6.4 -53.3,0.8c-26.2,-5.6 -44.9,-14.8 -41.7,-20.8c3.2,-5.9 27,-6.3 53.3,-0.8z" fill="none" stroke="#9f9c87" stroke-width="1.4" stroke-linecap="butt" stroke-linejoin="miter"/><path d="M230.9,198.3c0.8,0.3 2.4,0.7 1.5,4.6c-0.9,3.9 -6.4,6.3 -7.1,6.5c-2.5,0.9 -5.7,1.9 -9.6,1.6c-11.3,-0.7 -15.3,-13.4 -12.7,-16.4c2.5,-3 6.4,4.3 12.4,7.7c2.7,1.5 5.4,1.6 7.5,1.4c3,-0.3 7.2,-5.7 8,-5.4z" fill="#faa51f" stroke="none" stroke-width="1" stroke-linecap="butt" stroke-linejoin="miter"/><path d="M208.4,196.3c2.1,1.9 6,5.2 6,5.2c0,0 -3.7,0.5 -4.9,2.7c-1.2,2.2 1.8,5.5 0.2,4.9c-1.5,-1 -3.7,-2.5 -5.6,-5.6c-1.9,-3.1 -2.4,-8.1 -0.9,-9.2c1.6,-1 3,0.1 5.2,2z" fill="#ffffff" stroke="none" stroke-width="1" stroke-linecap="butt" stroke-linejoin="miter"/><path d="M230.9,198.3c0.8,0.3 2.4,0.7 1.5,4.6c-0.9,3.9 -6.4,6.3 -7.1,6.5c-2.5,0.9 -5.7,1.9 -9.6,1.6c-11.3,-0.7 -15.3,-13.4 -12.7,-16.4c2.5,-3 6.4,4.3 12.4,7.7c2.7,1.5 5.4,1.6 7.5,1.4c3,-0.3 7.2,-5.7 8,-5.4z" fill="none" stroke="#000000" stroke-width="1.4" stroke-linecap="round" stroke-linejoin="round"/><path d="M225.4,194.2c0,0 -1.8,2.7 -9.2,1.2c-7.4,-1.5 -12.6,-7.8 -9.9,-10.9c2.3,-2.7 6.1,1.4 11.5,3.4c4.1,1.5 8.1,0.2 8.1,0.2c4.2,3.2 -0.5,6.1 -0.5,6.1z" fill="#faa51f" stroke="#000000" stroke-width="1.4" stroke-linecap="round" stroke-linejoin="round"/><g fill="#faa51f" stroke="#000000" stroke-width="1.4" stroke-linecap="round" stroke-linejoin="round"><path d="M234.1,205.3c0,0 -3.2,7.2 -2.2,13.4c0.2,1.7 -0.2,2.3 -1.8,2.9c-1.7,0.6 -9.7,0.8 -9.8,-1c-0.5,-6.3 5.6,-2.7 5.9,-5.9c0.6,-7.5 -0.8,-12.2 -0.8,-12.2"/><path d="M224.5,216.3c0,0 1.1,-0.1 2.4,0.1"/></g><path d="M233.1,200.5" fill="#faa51f" stroke="#8e5322" stroke-width="1.4" stroke-linecap="round" stroke-linejoin="round"/><path d="M233.4,183.9c6.7,0 10.8,1.8 10.8,8.5c0,6.7 1.1,15.7 -10.8,15.7c-11.9,0 -10.2,-9.8 -10.2,-16.5c0,-6.6 3.3,-7.6 10.2,-7.7z" fill="#faa51f" stroke="#000000" stroke-width="1.4" stroke-linecap="round" stroke-linejoin="round"/><path d="M240.6,188c0,0 4.6,4.8 10.5,4.1c3,-0.3 8.1,-5.1 10.9,-1.2c3.4,4.6 -4.1,9.7 -11.7,8.8c-6.8,-0.9 -8.2,-3.3 -8.2,-3.3" fill="#faa51f" stroke="#000000" stroke-width="1.4" stroke-linecap="round" stroke-linejoin="round"/><path d="M231.2,189.8c3.7,0 5.9,1.2 5.9,5.4c0,4.2 0.6,9.9 -5.9,9.9c-6.4,0 -5.5,-6.3 -5.5,-10.5c0,-4.3 1.9,-4.9 5.5,-4.8z" fill="#ffffff" stroke="none" stroke-width="1" stroke-linecap="butt" stroke-linejoin="miter"/><g fill="#faa51f" stroke="#000000" stroke-width="1.4" stroke-linecap="round" stroke-linejoin="round"><path d="M243.3,202.5c0,0 -2.6,5.5 -1.3,14.2c0.6,3.8 6.2,-0.9 5.8,6.7c-0.1,2.5 -7.7,2.3 -9.9,1.9c-2.1,-0.4 -2.9,-1.5 -2.7,-3.6c0.3,-4.2 -1.2,-13.3 -1.2,-13.3"/><path d="M241.4,218.8c1.4,-0.4 3,-0.2 3,-0.2"/></g><path d="M240.6,139.9l7.8,-6.3l1.8,11.4c0,0 5.8,5.1 7.4,8.4c2.7,5.6 2.4,9.9 2.4,9.9c0,0 6.7,2.6 7.4,8.2c0.8,5.7 -4.4,15.7 -22.8,17.8c-18.4,2.1 -32.6,-4 -38.5,-15.6c-5.9,-11.6 6,-23.8 5.3,-23.1l-0.6,-18.4l11.9,9.2c0,0 4.5,-1.3 9.1,-1.1c1.7,0 4.8,0.4 6.3,0.7z" fill="#faa51f" stroke="none" stroke-width="1" stroke-linecap="butt" stroke-linejoin="miter"/><path d="M259.8,163.7c0,0 6.5,2.2 7.2,7.8c1,5.6 -4.7,15.5 -22.1,17.2c-4,0.5 -7.5,0.9 -13,0.4c-8.5,-0.7 -17.3,-6.7 -15.7,-17.7c0.9,-6.4 8.9,-5.2 8.9,-5.2l7.2,-1.3c0,0 6.9,2.3 11.2,1.7c4.3,-0.6 4.6,-3.9 4.6,-3.9l9,-1.8l2.2,2.2z" fill="#ffffff" stroke="none" stroke-width="1" stroke-linecap="butt" stroke-linejoin="miter"/><path d="M275.2,165.9c0,0 -1.9,1.4 -4.6,2.1c-2.3,0.5 -6.7,0.9 -6.7,0.9" fill="none" stroke="#000000" stroke-width="1.4" stroke-linecap="round" stroke-linejoin="round"/><path d="M273.5,177c0,0 -1.9,0 -4.5,-0.5c-2.7,-0.5 -5.2,-1.8 -5.2,-1.8" fill="none" stroke="#000000" stroke-width="1.4" stroke-linecap="round" stroke-linejoin="round"/><path d="M220.6,139.7l4.9,4" fill="none" stroke="#000000" stroke-width="1.4" stroke-linecap="round" stroke-linejoin="round"/><path d="M240.6,139.9l7.8,-6.3l1.8,11.4c0,0 5.8,5.1 7.4,8.4c2.7,5.6 2.4,9.9 2.4,9.9c0,0 6.7,2.6 7.4,8.2c0.8,5.7 -4.4,15.7 -22.8,17.8c-18.4,2.1 -32.6,-4 -38.5,-15.6c-5.9,-11.6 6,-23.8 5.3,-23.1l-0.6,-18.4l11.9,9.2c0,0 4.5,-1.3 9.1,-1.1c1.7,0 4.8,0.4 6.3,0.7z" fill="none" stroke="#000000" stroke-width="1.4" stroke-linecap="round" stroke-linejoin="round"/><path d="M206,169.1c0,0 -3.5,0.1 -5.3,0.1c-1.8,0 -5.7,-0.7 -5.7,-0.7" fill="none" stroke="#000000" stroke-width="1.4" stroke-linecap="round" stroke-linejoin="round"/><path d="M194.9,158.8c0,0 2.2,0.6 6,2.7c3.4,1.9 5.6,3.8 5.6,3.8" fill="none" stroke="#000000" stroke-width="1.4" stroke-linecap="round" stroke-linejoin="round"/><path d="M255.6,153.3c2.5,4.6 2.2,9.5 -0.7,11c-2.8,1.5 -7.1,-0.9 -9.6,-5.5c-2.5,-4.6 -2.2,-9.5 0.7,-11c2.9,-1.5 7.2,1 9.6,5.5z" fill="#ffffff" stroke="#000000" stroke-width="1.4" stroke-linecap="round" stroke-linejoin="round"/><path d="M255.2,156.9c0.2,1 -0.4,2 -1.4,2.2c-0.9,0.2 -1.9,-0.5 -2.1,-1.5c-0.2,-1 0.4,-2 1.4,-2.2c1,-0.2 1.9,0.5 2.1,1.5" fill="#414142" stroke="none" stroke-width="1" stroke-linecap="butt" stroke-linejoin="miter"/><path d="M232.2,154.6c2.5,4.6 1.7,9.7 -1.6,11.5c-3.4,1.8 -8.1,-0.4 -10.5,-5c-2.5,-4.6 -1.7,-9.7 1.6,-11.5c3.4,-1.8 8.1,0.4 10.5,5z" fill="#ffffff" stroke="#000000" stroke-width="1.4" stroke-linecap="round" stroke-linejoin="round"/><path d="M231.6,158.3c-0.1,1 -0.9,1.8 -1.9,1.7c-1,-0.1 -1.7,-1 -1.6,-2c0.1,-1 0.9,-1.8 1.9,-1.7c1,0.1 1.7,1 1.6,2" fill="#414142" stroke="none" stroke-width="1" stroke-linecap="butt" stroke-linejoin="miter"/><path d="M242.3,165.3c1.7,-0.1 4.1,-1.1 4.3,0.8c0,0.8 -1.9,4 -3.8,3.9c-2,0 -5.3,-2.9 -5,-4.4c0.2,-1.4 3.1,-0.2 4.5,-0.3z" fill="#000000" stroke="#000000" stroke-width="1.4" stroke-linecap="round" stroke-linejoin="round"/><path d="M238.9,180.7c-5.4,1.1 -7.9,-1.2 -7.9,-1.2" fill="#ffffff" stroke="#000000" stroke-width="1.4" stroke-linecap="round" stroke-linejoin="round"/></g></g></svg>