<svg version="1.1" xmlns="http://www.w3.org/2000/svg" xmlns:xlink="http://www.w3.org/1999/xlink" width="84.09796" height="97.26454" viewBox="0,0,84.09796,97.26454"><g transform="translate(-197.1,-131.3)"><g data-paper-data="{&quot;isPaintingLayer&quot;:true}" fill-rule="nonzero" stroke-miterlimit="10" stroke-dasharray="" stroke-dashoffset="0" style="mix-blend-mode: normal"><g stroke="#000000" stroke-width="1.4" stroke-linecap="round" stroke-linejoin="round"><path d="M244.7,190.6c0.8,-3.6 1.8,-2.9 1.8,-2.9c0.5,0.4 0.7,1.2 1.3,1.8c1.9,1.7 6.3,5.4 7.8,4.4c3.4,-2.7 7.4,-5.3 10.4,-2.1c4.3,3.6 -2.6,7 -6.2,9.6c-2.7,1.5 -5.3,3.2 -9.9,-0.5c-3.7,-3.4 -5.3,-3.4 -5.3,-3.4c-2.1,-1.4 -0.8,-3.3 0.1,-6.9z" fill="#faa51f"/><path d="M253.5,195.3l2.1,-1.4" fill="none"/></g><path d="M231.2,197.5c-0.413,0.819 -3.213,3.586 -5.3,3.4c-2.088,-0.188 -3.726,-2.434 -4.15,-4.4c-0.35,-1.651 0.611,-3.628 2,-4.5c2.107,-1.334 5.496,-2.818 7.35,-1.4c1.759,1.354 1.734,5.215 0.1,6.9z" fill="#faa51f" stroke="#000000" stroke-width="1.4" stroke-linecap="round" stroke-linejoin="round"/><g fill="#faa51f" stroke="#000000" stroke-width="1.4" stroke-linecap="round" stroke-linejoin="round"><path d="M247.5,205c0,0 -1.7,5.5 -0.9,14.3c0.3,3.8 7.4,-0.5 6.9,6.9c-0.2,2.1 -9.4,1.9 -11.5,1.1c-1.9,-0.7 -2.4,-1.4 -2.1,-3.4c1.1,-7.3 -2.6,-15.7 -2.6,-15.7"/><path d="M245.8,221.1c1.5,-0.3 2.8,-0.1 2.8,-0.1"/></g><path d="M231.7,201.9c0.9,0.2 2.8,0.6 1.5,4.6c-1.3,4 -7.8,6.6 -8.6,6.9c-2.9,1 -6.6,2.1 -11.1,2c-13,-0.3 -16.9,-12.9 -13.8,-16.1c3.1,-3.2 7.2,4.2 13.9,7.3c3,1.4 6,1.4 8.5,1.1c3.5,-0.4 8.6,-6 9.6,-5.8z" fill="#faa51f" stroke="none" stroke-width="1" stroke-linecap="butt" stroke-linejoin="miter"/><path d="M205.6,200.9c2.3,1.9 6.6,5.1 6.6,5.1c0,0 -4.2,0.6 -5.7,2.9c-1.5,2.3 1.8,5.6 0,5c-1.6,-1 -4.1,-2.4 -6.1,-5.5c-2,-3.1 -2.2,-8.1 -0.5,-9.3c1.9,-1.1 3.5,0 5.7,1.8z" fill="#ffffff" stroke="none" stroke-width="1" stroke-linecap="butt" stroke-linejoin="miter"/><path d="M231.7,201.9c0.9,0.2 2.8,0.6 1.5,4.6c-1.3,4 -7.8,6.6 -8.6,6.9c-2.9,1 -6.6,2.1 -11.1,2c-13,-0.3 -16.9,-12.9 -13.8,-16.1c3.1,-3.2 7.2,4.2 13.9,7.3c3,1.4 6,1.4 8.5,1.1c3.5,-0.4 8.6,-6 9.6,-5.8z" fill="none" stroke="#000000" stroke-width="1.4" stroke-linecap="round" stroke-linejoin="round"/><path d="M238.3,202.9" fill="#faa51f" stroke="#8e5322" stroke-width="1.4" stroke-linecap="round" stroke-linejoin="round"/><path d="M248.3,194.1c0,6.7 1.7,16.5 -10.2,16.5c-11.9,0 -10.8,-9 -10.8,-15.7c0,-6.7 4.1,-8.5 10.8,-8.5c6.7,0 10.2,1 10.2,7.7z" fill="#faa51f" stroke="#000000" stroke-width="1.4" stroke-linecap="round" stroke-linejoin="round"/><path d="M241.9,139l7.2,-7l2.8,11.2c0,0 6.2,4.6 8.1,7.8c3.1,5.3 3.2,9.6 3.2,9.6c0,0 6.9,2.1 8.1,7.6c1.2,5.5 -3.1,16 -21.3,19.6c-18.2,3.6 -32.8,-1.3 -39.7,-12.4c-6.8,-11 4,-24.2 3.4,-23.4l-2.2,-18.3l12.6,8.2c0,0 4.3,-1.7 8.9,-1.9c1.7,-0.1 4.8,0.1 6.3,0.2z" fill="#faa51f" stroke="none" stroke-width="1" stroke-linecap="butt" stroke-linejoin="miter"/><path d="M262.8,161.1c0,0 6.6,1.6 7.8,7.1c1.5,5.5 -3.4,15.9 -20.6,19c-3.9,0.7 -7.4,1.4 -12.9,1.4c-8.5,0.1 -17.8,-5.2 -17.1,-16.3c0.4,-6.4 8.5,-5.9 8.5,-5.9l7.1,-1.8c0,0 7.1,1.6 11.3,0.7c4.2,-0.9 4.2,-4.2 4.2,-4.2l8.8,-2.6l2.4,2z" fill="#ffffff" stroke="none" stroke-width="1" stroke-linecap="butt" stroke-linejoin="miter"/><path d="M278.3,161.9c0,0 -1.8,1.6 -4.4,2.5c-2.2,0.8 -6.6,1.5 -6.6,1.5" fill="none" stroke="#000000" stroke-width="1.4" stroke-linecap="round" stroke-linejoin="round"/><path d="M277.7,173c0,0 -1.8,0.2 -4.5,-0.1c-2.8,-0.2 -5.4,-1.3 -5.4,-1.3" fill="none" stroke="#000000" stroke-width="1.4" stroke-linecap="round" stroke-linejoin="round"/><path d="M227,144l-5.2,-3.6" fill="none" stroke="#000000" stroke-width="1.4" stroke-linecap="round" stroke-linejoin="round"/><path d="M241.9,139l7.2,-7l2.8,11.2c0,0 6.2,4.6 8.1,7.8c3.1,5.3 3.2,9.6 3.2,9.6c0,0 6.9,2.1 8.1,7.6c1.2,5.5 -3.1,16 -21.3,19.6c-18.2,3.6 -32.8,-1.3 -39.7,-12.4c-6.8,-11 4,-24.2 3.4,-23.4l-2.2,-18.3l12.6,8.2c0,0 4.3,-1.7 8.9,-1.9c1.7,-0.1 4.8,0.1 6.3,0.2z" fill="none" stroke="#000000" stroke-width="1.4" stroke-linecap="round" stroke-linejoin="round"/><path d="M209.7,170.9c0,0 -3.5,0.5 -5.3,0.6c-1.8,0.1 -5.8,-0.3 -5.8,-0.3" fill="none" stroke="#000000" stroke-width="1.4" stroke-linecap="round" stroke-linejoin="round"/><path d="M197.8,161.6c0,0 2.2,0.4 6.2,2.2c3.6,1.6 5.9,3.3 5.9,3.3" fill="none" stroke="#000000" stroke-width="1.4" stroke-linecap="round" stroke-linejoin="round"/><path d="M257.8,151.1c2.8,4.3 2.9,9.3 0.2,11c-2.7,1.8 -7.2,-0.3 -10,-4.7c-2.8,-4.3 -2.9,-9.3 -0.2,-11c2.7,-1.8 7.2,0.3 10,4.7z" fill="#ffffff" stroke="#000000" stroke-width="1.4" stroke-linecap="round" stroke-linejoin="round"/><path d="M257.7,154.6c0.3,1 -0.2,2 -1.2,2.3c-0.9,0.3 -1.9,-0.3 -2.2,-1.4c-0.3,-1 0.2,-2 1.2,-2.3c1,-0.2 1.9,0.4 2.2,1.4" fill="#000000" stroke="none" stroke-width="1" stroke-linecap="butt" stroke-linejoin="miter"/><path d="M234.6,154.2c2.8,4.3 2.5,9.5 -0.7,11.6c-3.2,2.1 -8.1,0.3 -10.9,-4.1c-2.8,-4.3 -2.5,-9.5 0.7,-11.6c3.2,-2.1 8.1,-0.2 10.9,4.1z" fill="#ffffff" stroke="#000000" stroke-width="1.4" stroke-linecap="round" stroke-linejoin="round"/><path d="M234.3,158c0,1 -0.8,1.9 -1.7,1.9c-1,0 -1.7,-0.8 -1.7,-1.9c0,-1 0.8,-1.9 1.7,-1.9c0.9,0 1.7,0.9 1.7,1.9" fill="#000000" stroke="none" stroke-width="1" stroke-linecap="butt" stroke-linejoin="miter"/><path d="M245.6,164.1c1.7,-0.2 4,-1.5 4.3,0.4c0,0.8 -1.6,4.1 -3.4,4.2c-2,0.1 -5.5,-2.4 -5.4,-3.9c0.1,-1.5 3,-0.5 4.5,-0.7z" fill="#000000" stroke="#000000" stroke-width="1.4" stroke-linecap="round" stroke-linejoin="round"/><path d="M245.7,197c0,4.2 0.9,10.5 -5.5,10.5c-6.4,0 -5.9,-5.7 -5.9,-9.9c0,-4.2 2.2,-5.4 5.9,-5.4c3.7,0 5.5,0.6 5.5,4.8z" fill="#ffffff" stroke="none" stroke-width="1" stroke-linecap="butt" stroke-linejoin="miter"/><g fill="#faa51f" stroke="#000000" stroke-width="1.4" stroke-linecap="round" stroke-linejoin="round"><path d="M237.4,210.9c0,0 -1.5,9.1 -1.2,13.3c0.2,2.1 -0.6,3.2 -2.7,3.6c-2.2,0.4 -9.8,0.6 -9.9,-1.9c-0.4,-7.6 5.2,-2.9 5.8,-6.7c1.3,-8.7 -1.3,-14.2 -1.3,-14.2"/><path d="M227.1,221c0,0 1.6,-0.2 3,0.2"/></g><path d="M244.4,180.7c-5.4,1.1 -7.9,-1.2 -7.9,-1.2" fill="#ffffff" stroke="#000000" stroke-width="1.4" stroke-linecap="round" stroke-linejoin="round"/><g><path d="M253.29708,196.18744l-8.544,-7.2c-0.3302,-0.3 -0.5366,-1 -0.5366,-1.9v-40.2c0,-1.4 0.5779,-2.3 1.1144,-1.9l8.0074,6.8v44.4z" fill="#ddceb1" stroke="#8e5322" stroke-width="1.07096" stroke-linecap="round" stroke-linejoin="round"/><path d="M253.29708,196.18744v-44.4l9.1218,-7.7v44.4l-9.1218,7.7" fill="#8ebcb8" stroke="none" stroke-width="0.76497" stroke-linecap="butt" stroke-linejoin="miter"/><path d="M271.54068,196.18744l-9.1218,-7.7v-44.4l9.1218,7.7v44.4" fill="#9ed8d5" stroke="none" stroke-width="0.76497" stroke-linecap="butt" stroke-linejoin="miter"/><path d="M271.49938,196.18744v-44.4l8.0074,-6.8c0.5366,-0.4 1.1144,0.5 1.1144,1.9v40.2c0,0.9 -0.2063,1.6 -0.5365,1.9l-8.544,7.2z" fill="#8ebcb8" stroke="none" stroke-width="0.76497" stroke-linecap="butt" stroke-linejoin="miter"/><path d="M253.29708,196.18744l-8.544,-7.2c-0.3302,-0.3 -0.5366,-1 -0.5366,-1.9v-40.2c0,-1.4 0.5779,-2.3 1.1144,-1.9l8.0074,6.8v44.4z" fill="#9ed8d5" stroke="none" stroke-width="0.76497" stroke-linecap="butt" stroke-linejoin="miter"/><path d="M248.05508,155.88744c0.7017,1 0.2477,4.8 -0.7429,6c-0.9906,1.2 -1.5685,0.8 -1.94,-4c-0.4127,-4.8 0.454,-7 1.197,-6.3c0.743,0.8 0.0826,2.2 1.4859,4.3z" fill="#89cca1" stroke="none" stroke-width="0.76497" stroke-linecap="butt" stroke-linejoin="miter"/><path d="M262.41888,144.08744v6.1c-2.9306,0 0.5778,10.6 -1.4034,19c-1.1144,4.8 -4.3751,11.5 -5.6547,4.2c-1.1144,-6.4 2.0225,-8.4 0,-18.2c-0.8668,-4.1 1.6923,-6.6 1.6923,-6.6z" fill="#79b28c" stroke="none" stroke-width="0.76497" stroke-linecap="butt" stroke-linejoin="miter"/><path d="M262.46018,143.98744l7.5533,6.4c0,0 -1.1557,13.3 -3.0131,13.2c-1.8574,0 -2.4352,-6.2 -2.1463,-8.8c0.2477,-2.6 -1.2795,-4.6 -2.4352,-4.6z" fill="#89cca1" stroke="none" stroke-width="0.76497" stroke-linecap="butt" stroke-linejoin="miter"/><path d="M244.17518,173.08744c0,0 1.4859,5 2.3527,-0.3c0.9906,-6.1 1.6098,-8.4 3.2195,-7.6c1.5685,0.8 2.4352,7.1 0.6604,12.8c-1.3208,4.3 1.7336,5.2 2.394,11.8c0.3714,3.5 -0.743,5.4 -0.743,5.4l-7.8836,-6.7z" fill="#89cca1" stroke="none" stroke-width="0.76497" stroke-linecap="butt" stroke-linejoin="miter"/><path d="M255.60848,194.28744c0.9906,-0.7 1.9399,-7.6 2.8067,-8.1c0.8668,-0.5 0.9493,4.9 0.9493,4.9z" fill="#79b28c" stroke="none" stroke-width="0.76497" stroke-linecap="butt" stroke-linejoin="miter"/><path d="M271.54068,165.88744c1.7748,0 1.4446,-10 3.0956,-11.8c1.651,-1.8 3.1782,-1.1 3.3433,5.2c0.1651,6.4 -2.6003,6.7 -2.8067,12c-0.1238,3.2 4.0037,7.3 0.6191,12.6c-2.105,3.3 -2.6416,-6.2 -4.2513,-6.2z" fill="#79b28c" stroke="none" stroke-width="0.76497" stroke-linecap="butt" stroke-linejoin="miter"/><path d="M271.49938,165.88744v11.8c-1.1144,0.1 -1.3208,7.7 -2.3939,10.8c-1.0732,3.1 -4.3752,-0.9 -3.8386,-4.2c0.5365,-3.3 -2.0638,-7.1 -1.4447,-10.3c0.8255,-4.2 3.7974,4.8 3.7148,-1.6c-0.0825,-5.9 4.0037,-6.5 3.9624,-6.5z" fill="#89cca1" stroke="none" stroke-width="0.76497" stroke-linecap="butt" stroke-linejoin="miter"/><path d="M276.08098,192.38744c0,0 4.0037,-4.6 3.2194,-9.1c-0.4127,-2.3 -2.0224,-13.9 1.3208,-14.3v19.5z" fill="#79b28c" stroke="none" stroke-width="0.76497" stroke-linecap="butt" stroke-linejoin="miter"/><g stroke="#939598" stroke-width="1.07096" stroke-linecap="round" stroke-linejoin="round"><path d="M253.29708,162.88744l-9.1219,-7.7" fill="#ddceb1"/><path d="M244.17518,166.28744l9.1219,7.7" fill="#ddceb1"/><path d="M253.29708,185.08744l-9.1219,-7.7" fill="#ddceb1"/><path d="M248.75678,147.88744v44.5" fill="none"/><path d="M253.29708,162.88744l9.1218,-7.7" fill="#ddceb1"/><path d="M262.41888,166.28744l-9.1218,7.7" fill="#ddceb1"/><path d="M262.41888,177.38744l-9.1218,7.7" fill="#ddceb1"/><path d="M257.87858,147.88744v44.5" fill="none"/><path d="M271.54068,162.88744l-9.1218,-7.7" fill="#ddceb1"/><path d="M271.54068,173.98744l-9.1218,-7.7" fill="#ddceb1"/><path d="M262.41888,177.38744l9.1218,7.7" fill="#ddceb1"/><path d="M266.95918,192.38744v-44.5" fill="none"/><path d="M271.54068,162.88744l9.1218,-7.7" fill="#ddceb1"/><path d="M280.66248,166.28744l-9.1218,7.7" fill="#ddceb1"/><path d="M280.66248,177.38744l-9.1218,7.7" fill="#ddceb1"/><path d="M276.08098,147.88744v44.5" fill="none"/></g><g fill="#fefce4" stroke="none" stroke-width="0.76497" stroke-linecap="butt" stroke-linejoin="miter"><path d="M262.41888,147.48744c-0.2477,0 -0.454,0.1 -0.743,0.3l-6.9342,5.9c-0.454,0.4 -0.9906,0.6 -1.4859,0.6c-0.4953,0 -0.9906,-0.2 -1.4859,-0.6l-6.3977,-5.4v38.1l7.8836,6.7l7.6359,-6.4c0.454,-0.4 0.9906,-0.6 1.4859,-0.6c0.4953,0 0.9906,0.2 1.4859,0.6l7.6359,6.4l7.8836,-6.7v-38.1l-6.3977,5.4c-0.454,0.4 -0.9906,0.6 -1.4859,0.6c-0.4953,0 -0.9906,-0.2 -1.4859,-0.6l-6.9342,-5.9c-0.2064,-0.2 -0.4128,-0.3 -0.6604,-0.3M279.96078,147.78744v0v0M262.41888,144.48744c0.3715,0 0.7429,0.2 1.0319,0.5l6.9342,5.9c0.3302,0.3 0.7017,0.4 1.0731,0.4c0.3715,0 0.7017,-0.1 1.0732,-0.4l6.9342,-5.9c0.1239,-0.1 0.2064,-0.1 0.289,-0.1c0.454,0 0.8255,0.9 0.8255,2v40.1c0,0.9 -0.2064,1.6 -0.5366,1.9l-8.544,7.2l-8.0486,-6.8c-0.3302,-0.3 -0.7017,-0.4 -1.0732,-0.4c-0.3715,0 -0.7017,0.1 -1.0732,0.4l-8.0073,6.8l-8.544,-7.2c-0.3302,-0.3 -0.5366,-1 -0.5366,-1.9v-40.2c0,-1.1 0.3715,-2 0.8255,-2c0.1238,0 0.2064,0 0.2889,0.1l6.9343,5.9c0.3302,0.3 0.7017,0.4 1.0731,0.4c0.3715,0 0.7017,-0.1 1.0732,-0.4l6.9342,-5.9c0.3302,-0.3 0.7017,-0.4 1.0732,-0.4z"/></g><path d="M280.66248,146.88744v40.2c0,0.9 -0.2064,1.6 -0.5366,1.9l-8.5439,7.2l-8.0487,-6.8c-0.7017,-0.6 -1.4859,-0.6 -2.1876,0l-8.0074,6.8l-8.5439,-7.2c-0.3302,-0.3 -0.5366,-1 -0.5366,-1.9v-40.2c0,-1.4 0.5778,-2.3 1.1144,-1.9l6.9343,5.9c0.7016,0.6 1.4859,0.6 2.1875,0l6.9343,-5.9c0.7017,-0.6 1.4859,-0.6 2.1876,0l6.9342,5.9c0.7017,0.6 1.4859,0.6 2.1876,0l6.9342,-5.9c0.4128,-0.5 0.9906,0.5 0.9906,1.9z" fill="none" stroke="#6d6e71" stroke-width="1.07096" stroke-linecap="round" stroke-linejoin="round"/></g><g stroke="#000000" stroke-width="1.4" stroke-linecap="round" stroke-linejoin="round"><path d="M255.5,193.9c3.4,-2.7 7.4,-5.3 10.4,-2.1c4.3,3.6 -2.6,7 -6.2,9.6c-2.7,1.5 -5.3,3.2 -9.9,-0.5" fill="#faa51f"/><path d="M253.5,195.3l2.1,-1.4" fill="none"/></g><path d="M223.25,193c0,0 3.703,-3.912 6.25,-5.5c2.834,-1.776 5.974,-3.854 8.75,-5c3.385,-1.388 7.433,-4.234 10.5,-3.25c1.82,0.592 1.164,4.746 -0.25,6.25c-6.26,6.08 -21.25,15 -21.25,15" fill="#faa51f" stroke="#000000" stroke-width="1.4" stroke-linecap="round" stroke-linejoin="round"/></g></g></svg>