<svg version="1.1" xmlns="http://www.w3.org/2000/svg" xmlns:xlink="http://www.w3.org/1999/xlink" width="271.6" height="324.764" viewBox="0,0,271.6,324.764"><defs><radialGradient cx="225.5441" cy="341.964" r="95.4999" gradientUnits="userSpaceOnUse" id="color-1"><stop offset="0" stop-color="#430036"/><stop offset="1" stop-color="#430036" stop-opacity="0"/></radialGradient></defs><g transform="translate(-115.5,-26.2)"><g data-paper-data="{&quot;isPaintingLayer&quot;:true}" fill-rule="nonzero" stroke-miterlimit="10" stroke-dasharray="" stroke-dashoffset="0" style="mix-blend-mode: normal"><path d="M225.544,332.964c26.348,0 50.223,1.009 67.511,2.638c17.287,1.63 27.989,3.88 27.989,6.362c0,2.483 -10.702,4.733 -27.989,6.363c-17.288,1.629 -41.163,2.637 -67.511,2.637c-26.348,0 -50.2229,-1.008 -67.5112,-2.637c-17.2869,-1.63 -27.9886,-3.88 -27.9886,-6.363c0,-2.482 10.7017,-4.732 27.9886,-6.362c17.2883,-1.629 41.1632,-2.638 67.5112,-2.638z" fill="url(#color-1)" stroke="none" stroke-width="1.10565" stroke-linecap="butt" stroke-linejoin="miter"/><path d="M279.5,212.9c0,0 16,9 26,7.7c10,-1.3 35,-11 40,1c7.7,17.7 -17.3,27.4 -42.7,24.4c-25.4,-3 -28,-13 -28,-13c0,0 -12,-14.5 4.7,-20.1z" fill="#faa51f" stroke="#000000" stroke-width="3" stroke-linecap="round" stroke-linejoin="round"/><g fill="#faa51f" stroke="#000000" stroke-width="3" stroke-linecap="round" stroke-linejoin="round"><path d="M286.2,267.6c0,0 -5.7,18.3 -3,47.7c1,12.7 24.7,-1.7 23,23c-0.7,7 -31.4,6.3 -38.4,3.7c-6.3,-2.3 -8,-4.7 -7,-11.3c3.7,-24.4 -8.7,-52.4 -8.7,-52.4"/><path d="M280.6,321.6c5,-1 9.3,-0.3 9.3,-0.3"/></g><path d="M233.4,257.5c3,0.6 9.3,2 5,15.3c-4.3,13.3 -26,22 -28.7,23c-9.6,3.4 -22,7 -37,6.7c-43.3,-1 -56.3,-43 -46,-53.7c10.4,-10.6 24,14.1 46.4,24.4c10.1,4.7 20.1,4.7 28.4,3.7c11.6,-1.3 28.6,-20 31.9,-19.4z" fill="#faa51f" stroke="none" stroke-width="1" stroke-linecap="butt" stroke-linejoin="miter"/><path d="M146.5,253.8c7.7,6.3 22,17 22,17c0,0 -14,2 -19,9.7c-5,7.7 6,18.7 0,16.7c-5.4,-3.3 -13.7,-8 -20.4,-18.3c-6.7,-10.3 -7.4,-27 -1.7,-31c6.3,-3.7 11.7,0 19.1,5.9z" fill="#ffffff" stroke="none" stroke-width="1" stroke-linecap="butt" stroke-linejoin="miter"/><path d="M233.4,257.5c3,0.6 9.3,2 5,15.3c-4.3,13.3 -26,22 -28.7,23c-9.6,3.4 -22,7 -37,6.7c-43.3,-1 -56.3,-43 -46,-53.7c10.4,-10.6 24,14.1 46.4,24.4c10.1,4.7 20.1,4.7 28.4,3.7c11.6,-1.3 28.6,-20 31.9,-19.4z" fill="none" stroke="#000000" stroke-width="3" stroke-linecap="round" stroke-linejoin="round"/><path d="M288.9,231.2c0,22.4 5.7,55 -34,55c-39.7,0 -36,-30 -36,-52.4c0,-22.4 13.7,-28.4 36,-28.4c22.6,0.5 34,3.8 34,25.8z" fill="#faa51f" stroke="#000000" stroke-width="3" stroke-linecap="round" stroke-linejoin="round"/><path d="M280.2,241.2c0,14 3,35 -18.3,35c-21.7,0 -19.7,-19 -19.7,-33c0,-14 7.3,-18 19.7,-18c12.3,-0.3 18.3,2 18.3,16z" fill="#ffffff" stroke="none" stroke-width="1" stroke-linecap="butt" stroke-linejoin="miter"/><g fill="#faa51f" stroke="#000000" stroke-width="3" stroke-linecap="round" stroke-linejoin="round"><path d="M252.5,287.3c0,0 -5,30.4 -4,44.4c0.7,7 -2,10.7 -9,12c-7.3,1.4 -32.7,2 -33,-6.3c-1.4,-25.4 17.3,-9.7 19.3,-22.4c4.4,-29.1 -4.3,-47.4 -4.3,-47.4"/><path d="M218.1,321.3c0,0 5.3,-0.7 10,0.7"/></g><g stroke="#000000" stroke-width="3" stroke-linecap="round" stroke-linejoin="round"><path d="M210.8,244.6c18.7,4.7 16.7,11.3 16.3,16.7c-0.7,13.3 -12.3,14.7 -36.7,4.7c-18,-7.3 -14,-41.4 21.4,-61.4l26.4,4.7" fill="#faa51f"/><path d="M210.8,244.6l8.7,-13.7" fill="none"/><path d="M206.5,243.2l4.3,1.4" fill="none"/></g><path d="M264.3,51.1l24,-23.4l9.3,37.4c0,0 20.7,15.3 27,26c10.4,17.7 10.7,32 10.7,32c0,0 23,7.1 27,25.4c4,18.4 -10.4,53.4 -71.1,65.4c-60.7,12 -109.4,-4.4 -132.4,-41.4c-22.7,-36.7 13.3,-80.8 11.3,-78.1l-7.3,-61.1l42,27.4c0,0 14.4,-5.6 29.7,-6.3c5.7,-0.3 16,0.4 21,0.7z" fill="#faa51f" stroke="#000000" stroke-width="1" stroke-linecap="butt" stroke-linejoin="miter"/><path d="M333.7,124.5c0,0 22,5.4 26,23.7c5,18.4 -11.3,53.1 -68.7,63.4c-13,2.4 -24.7,4.7 -43,4.7c-28.3,0.3 -59.3,-17.4 -57,-54.4c1.4,-21.4 28.4,-19.7 28.4,-19.7l23.7,-6c0,0 23.7,5.3 37.7,2.3c14,-3 14,-14 14,-14l29.4,-8.7l8,6.7z" fill="#ffffff" stroke="none" stroke-width="0" stroke-linecap="butt" stroke-linejoin="miter"/><path d="M385.6,127.2c0,0 -6,5.3 -14.7,8.3c-7.3,2.7 -22,5 -22,5" fill="none" stroke="#000000" stroke-width="3" stroke-linecap="round" stroke-linejoin="round"/><path d="M383.6,164.4c0,0 -6,0.7 -15,-0.3c-9.3,-0.6 -18,-4.3 -18,-4.3" fill="none" stroke="#000000" stroke-width="3" stroke-linecap="round" stroke-linejoin="round"/><path d="M197.1,55.4l17.4,12" fill="none" stroke="#000000" stroke-width="3" stroke-linecap="round" stroke-linejoin="round"/><path d="M264.3,51.1l24,-23.4l9.3,37.4c0,0 20.7,15.3 27,26c10.4,17.7 10.7,32 10.7,32c0,0 23,7.1 27,25.4c4,18.4 -10.4,53.4 -71.1,65.4c-60.7,12 -109.4,-4.4 -132.4,-41.4c-22.7,-36.7 13.3,-80.8 11.3,-78.1l-7.3,-61.1l42,27.4c0,0 14.4,-5.6 29.7,-6.3c5.7,-0.3 16,0.4 21,0.7z" fill="none" stroke="#000000" stroke-width="3" stroke-linecap="round" stroke-linejoin="round"/><path d="M156.7,157.5c0,0 -11.7,1.7 -17.7,2c-6,0.3 -19.3,-1 -19.3,-1" fill="none" stroke="#000000" stroke-width="3" stroke-linecap="round" stroke-linejoin="round"/><path d="M117,126.2c0,0 7.4,1.3 20.7,7.3c12,5.3 19.7,11 19.7,11" fill="none" stroke="#000000" stroke-width="3" stroke-linecap="round" stroke-linejoin="round"/><path d="M316.20432,92.09568c9.3,14.3 9.7,31 0.7,36.7c-9,6 -24,-1 -33.4,-15.7c-9.3,-14.3 -9.7,-31 -0.7,-36.7c9.1,-5.7 24.1,1.3 33.4,15.7z" fill="#ffffff" stroke="#000000" stroke-width="3" stroke-linecap="round" stroke-linejoin="round"/><path d="M305.4,103.9c1,3.3 -0.7,6.7 -4,7.7c-3,1 -6.3,-1 -7.3,-4.7c-1,-3.3 0.7,-6.7 4,-7.7c3.3,-0.6 6.6,1.4 7.3,4.7" fill="#000000" stroke="none" stroke-width="1" stroke-linecap="butt" stroke-linejoin="miter"/><path d="M239.8,101.8c9.3,14.3 8.3,31.7 -2.3,38.7c-10.7,7 -27,1 -36.4,-13.7c-9.3,-14.3 -8.3,-31.7 2.3,-38.7c10.7,-7 27.1,-1 36.4,13.7z" fill="#ffffff" stroke="#000000" stroke-width="3" stroke-linecap="round" stroke-linejoin="round"/><path d="M227.3,115.2c0,3.3 -2.7,6.3 -5.7,6.3c-3.3,0 -5.7,-2.7 -5.7,-6.3c0,-3.3 2.7,-6.3 5.7,-6.3c3,0 5.7,3 5.7,6.3" fill="#000000" stroke="none" stroke-width="1" stroke-linecap="butt" stroke-linejoin="miter"/><path d="M276.5,134.8c5.7,-0.7 13.3,-5 14.3,1.3c0,2.7 -5.3,13.7 -11.3,14c-6.7,0.3 -18.3,-8 -18,-13c0.3,-5 10,-1.6 15,-2.3z" fill="#120e0d" stroke="#000000" stroke-width="3" stroke-linecap="round" stroke-linejoin="round"/><path d="M244.7,172.8c1.462,0 2.787,0.594 3.747,1.553c0.959,0.96 1.553,2.285 1.553,3.747c0,1.462 -0.594,2.787 -1.553,3.747c-0.96,0.959 -2.285,1.553 -3.747,1.553c-1.462,0 -2.787,-0.594 -3.747,-1.553c-0.959,-0.96 -1.553,-2.285 -1.553,-3.747c0,-1.462 0.594,-2.787 1.553,-3.747c0.96,-0.959 2.285,-1.553 3.747,-1.553z" fill="#c70000" stroke="#000000" stroke-width="3" stroke-linecap="round" stroke-linejoin="round"/></g></g></svg>