<svg version="1.1" xmlns="http://www.w3.org/2000/svg" xmlns:xlink="http://www.w3.org/1999/xlink" width="63" height="63" viewBox="0,0,63,63"><defs><radialGradient cx="240" cy="180" r="31" gradientUnits="userSpaceOnUse" id="color-1"><stop offset="0" stop-color="#000000" stop-opacity="0"/><stop offset="1" stop-color="#000000"/></radialGradient><radialGradient cx="240" cy="180" r="28.5" gradientUnits="userSpaceOnUse" id="color-2"><stop offset="0" stop-color="#ffffff"/><stop offset="1" stop-color="#ffffff" stop-opacity="0"/></radialGradient></defs><g transform="translate(-208.5,-148.5)"><g data-paper-data="{&quot;isPaintingLayer&quot;:true}" fill-rule="nonzero" stroke-linecap="butt" stroke-linejoin="miter" stroke-miterlimit="10" stroke-dasharray="" stroke-dashoffset="0" style="mix-blend-mode: normal"><path d="M209,180c0,-17.12083 13.87917,-31 31,-31c17.12083,0 31,13.87917 31,31c0,17.12083 -13.87917,31 -31,31c-17.12083,0 -31,-13.87917 -31,-31z" fill="#808080" stroke="none" stroke-width="0"/><path d="M209,180c0,-17.12083 13.87917,-31 31,-31c17.12083,0 31,13.87917 31,31c0,17.12083 -13.87917,31 -31,31c-17.12083,0 -31,-13.87917 -31,-31z" fill="url(#color-1)" stroke="none" stroke-width="0"/><path d="M211.5,180c0,-15.74011 12.75989,-28.5 28.5,-28.5c15.74011,0 28.5,12.75989 28.5,28.5c0,15.74011 -12.75989,28.5 -28.5,28.5c-15.74011,0 -28.5,-12.75989 -28.5,-28.5z" fill="none" stroke="url(#color-2)" stroke-width="6"/><path d="M229.75,196.25v-32.12308l29,16.29329z" fill="#ffffff" stroke="none" stroke-width="0"/><path d="M211.5,180c0,-15.74011 12.75989,-28.5 28.5,-28.5c15.74011,0 28.5,12.75989 28.5,28.5c0,15.74011 -12.75989,28.5 -28.5,28.5c-15.74011,0 -28.5,-12.75989 -28.5,-28.5z" fill="none" stroke="#fff700" stroke-width="1"/></g></g></svg>